<?xml version="1.0" encoding="UTF-8"?>
<!DOCTYPE svg PUBLIC "-//W3C//DTD SVG 1.1//EN" "http://www.w3.org/Graphics/SVG/1.1/DTD/svg11.dtd">
<svg xmlns="http://www.w3.org/2000/svg" version="1.1" width="500px" height="500px" style="shape-rendering:geometricPrecision; text-rendering:geometricPrecision; image-rendering:optimizeQuality; fill-rule:evenodd; clip-rule:evenodd" xmlns:xlink="http://www.w3.org/1999/xlink">
<g><path style="opacity:0.972" fill="#fefffe" d="M 153.5,145.5 C 177.5,145.5 201.5,145.5 225.5,145.5C 225.5,154.833 225.5,164.167 225.5,173.5C 211.167,173.5 196.833,173.5 182.5,173.5C 182.5,184.833 182.5,196.167 182.5,207.5C 202.844,207.167 223.178,207.5 243.5,208.5C 244.833,217.167 244.833,225.833 243.5,234.5C 223.178,235.5 202.844,235.833 182.5,235.5C 182.5,246.5 182.5,257.5 182.5,268.5C 196.833,268.5 211.167,268.5 225.5,268.5C 225.5,278.167 225.5,287.833 225.5,297.5C 201.167,297.5 176.833,297.5 152.5,297.5C 152.172,246.762 152.505,196.095 153.5,145.5 Z"/></g>
<g><path style="opacity:0.956" fill="#fefffe" d="M 249.5,145.5 C 279.833,145.5 310.167,145.5 340.5,145.5C 340.817,154.418 340.484,163.251 339.5,172C 309.5,172.667 279.5,172.667 249.5,172C 248.18,163.167 248.18,154.333 249.5,145.5 Z"/></g>
<g><path style="opacity:0.989" fill="#fefffe" d="M 280.5,200.5 C 290.167,200.5 299.833,200.5 309.5,200.5C 309.5,232.833 309.5,265.167 309.5,297.5C 299.833,297.5 290.167,297.5 280.5,297.5C 280.5,265.167 280.5,232.833 280.5,200.5 Z"/></g>
</svg>
