<?xml version="1.0" encoding="UTF-8"?>
<!DOCTYPE svg PUBLIC "-//W3C//DTD SVG 1.1//EN" "http://www.w3.org/Graphics/SVG/1.1/DTD/svg11.dtd">
<svg xmlns="http://www.w3.org/2000/svg" version="1.1" width="177px" height="74px" style="shape-rendering:geometricPrecision; text-rendering:geometricPrecision; image-rendering:optimizeQuality; fill-rule:evenodd; clip-rule:evenodd" xmlns:xlink="http://www.w3.org/1999/xlink">
<g><path style="opacity:0.914" fill="#fefffe" d="M 5.5,16.5 C 11.2055,16.1712 16.8722,16.5046 22.5,17.5C 16.9025,30.4592 11.4025,43.4592 6,56.5C 5.5001,43.1708 5.33344,29.8375 5.5,16.5 Z"/></g>
<g><path style="opacity:0.874" fill="#fefffe" d="M 33.5,16.5 C 39.1667,16.5 44.8333,16.5 50.5,16.5C 50.6666,29.8375 50.4999,43.1708 50,56.5C 44.0024,43.3325 38.5024,29.9992 33.5,16.5 Z"/></g>
<g><path style="opacity:0.771" fill="#fefffe" d="M 109.5,22.5 C 111.167,22.5 112.833,22.5 114.5,22.5C 114.831,30.1955 114.497,37.8622 113.5,45.5C 101.515,49.6773 97.0152,45.6773 100,33.5C 102.579,30.8901 105.746,29.5568 109.5,29.5C 109.5,27.1667 109.5,24.8333 109.5,22.5 Z M 104.5,34.5 C 106.167,34.5 107.833,34.5 109.5,34.5C 109.5,37.5 109.5,40.5 109.5,43.5C 103.647,43.0669 101.98,40.0669 104.5,34.5 Z"/></g>
<g><path style="opacity:0.792" fill="#fefffe" d="M 136.5,23.5 C 138.167,23.5 139.833,23.5 141.5,23.5C 141.5,25.8333 141.5,28.1667 141.5,30.5C 151.719,30.5978 154.552,35.2645 150,44.5C 146.063,47.5681 141.729,48.2347 137,46.5C 136.5,38.8406 136.334,31.1739 136.5,23.5 Z M 141.5,34.5 C 147.313,34.062 148.98,36.562 146.5,42C 144.975,43.0086 143.308,43.5086 141.5,43.5C 141.5,40.5 141.5,37.5 141.5,34.5 Z"/></g>
<g><path style="opacity:0.776" fill="#fefffe" d="M 84.5,24.5 C 86.288,24.2148 87.9547,24.5481 89.5,25.5C 92.0733,32.3896 94.74,39.2229 97.5,46C 95.5273,46.4955 93.5273,46.6621 91.5,46.5C 91.1667,44.5 90.8333,42.5 90.5,40.5C 85.3448,39.4727 82.3448,41.4727 81.5,46.5C 79.8333,47.8333 78.1667,47.8333 76.5,46.5C 79.3755,39.2037 82.0422,31.8704 84.5,24.5 Z M 86.5,30.5 C 87.7384,32.2143 88.405,34.2143 88.5,36.5C 87.5,36.5 86.5,36.5 85.5,36.5C 85.8333,34.5 86.1667,32.5 86.5,30.5 Z"/></g>
<g><path style="opacity:0.826" fill="#fefffe" d="M 27.5,30.5 C 31.6848,38.8785 35.3514,47.5452 38.5,56.5C 35.8333,56.5 33.1667,56.5 30.5,56.5C 29.8333,53.8333 29.1667,51.1667 28.5,48.5C 25.8333,48.5 23.1667,48.5 20.5,48.5C 22.4392,42.3495 24.7725,36.3495 27.5,30.5 Z"/></g>
<g><path style="opacity:0.782" fill="#fefffe" d="M 121.5,30.5 C 131.966,29.1271 135.799,33.4605 133,43.5C 128.62,48.3433 123.954,48.6767 119,44.5C 116.418,39.1198 117.251,34.4531 121.5,30.5 Z M 124.5,33.5 C 127.893,33.3753 129.226,35.042 128.5,38.5C 129.091,42.92 127.424,44.2533 123.5,42.5C 121.992,39.2313 122.325,36.2313 124.5,33.5 Z"/></g>
<g><path style="opacity:0.801" fill="#fefffe" d="M 158.5,30.5 C 165.023,28.7796 169.023,31.1129 170.5,37.5C 170.291,38.086 169.957,38.586 169.5,39C 166.167,39.3333 162.833,39.6667 159.5,40C 161.4,43.3081 164.067,44.1415 167.5,42.5C 168.452,44.0453 168.785,45.712 168.5,47.5C 158.346,49.5041 153.846,45.5041 155,35.5C 155.997,33.6769 157.164,32.0103 158.5,30.5 Z M 161.5,33.5 C 163.359,33.4609 164.692,34.2942 165.5,36C 163.5,36.6667 161.5,36.6667 159.5,36C 160.381,35.2917 161.047,34.4584 161.5,33.5 Z"/></g>
</svg>
