<?xml version="1.0" encoding="UTF-8"?>
<!DOCTYPE svg PUBLIC "-//W3C//DTD SVG 1.1//EN" "http://www.w3.org/Graphics/SVG/1.1/DTD/svg11.dtd">
<svg xmlns="http://www.w3.org/2000/svg" version="1.1" width="177px" height="74px" style="shape-rendering:geometricPrecision; text-rendering:geometricPrecision; image-rendering:optimizeQuality; fill-rule:evenodd; clip-rule:evenodd" xmlns:xlink="http://www.w3.org/1999/xlink">
<g><path style="opacity:0.747" fill="#fefffe" d="M 51.5,23.5 C 50.3509,23.2089 49.6842,22.3756 49.5,21C 50.5351,16.7962 53.2017,14.6295 57.5,14.5C 57.0681,18.5897 55.0681,21.5897 51.5,23.5 Z"/></g>
<g><path style="opacity:0.806" fill="#fefffe" d="M 72.5,16.5 C 78.9251,16.1304 85.2584,16.6304 91.5,18C 97.7861,23.9736 98.1194,30.3069 92.5,37C 88.0783,39.1036 83.4116,39.9369 78.5,39.5C 78.5,43.1667 78.5,46.8333 78.5,50.5C 76.5,50.5 74.5,50.5 72.5,50.5C 72.5,39.1667 72.5,27.8333 72.5,16.5 Z M 78.5,21.5 C 81.941,21.3011 85.2744,21.8011 88.5,23C 91.4133,26.7404 91.08,30.0737 87.5,33C 84.5184,33.498 81.5184,33.6646 78.5,33.5C 78.5,29.5 78.5,25.5 78.5,21.5 Z"/></g>
<g><path style="opacity:0.924" fill="#fefffe" d="M 51.5,23.5 C 55.7116,21.8429 59.5449,22.5096 63,25.5C 61.7928,27.9619 60.6261,30.6286 59.5,33.5C 60.3386,36.6745 62.0053,39.3411 64.5,41.5C 63.3605,44.9473 61.3605,47.7806 58.5,50C 53.1667,49.3333 47.8333,49.3333 42.5,50C 35.9667,44.2052 33.8,37.0385 36,28.5C 39.3669,22.7118 44.0335,21.3785 50,24.5C 50.7648,24.4301 51.2648,24.0967 51.5,23.5 Z"/></g>
<g><path style="opacity:0.828" fill="#fefffe" d="M 103.5,25.5 C 108.765,24.5706 113.265,25.9039 117,29.5C 117.5,36.4921 117.666,43.4921 117.5,50.5C 115.833,50.5 114.167,50.5 112.5,50.5C 112.649,49.448 112.483,48.448 112,47.5C 107.333,51.5 102.667,51.5 98,47.5C 95.7422,43.2718 96.5755,39.7718 100.5,37C 104.395,35.7338 108.395,35.2338 112.5,35.5C 112.582,32.4151 111.082,30.7485 108,30.5C 106.029,30.4683 104.529,31.3016 103.5,33C 101.866,33.4935 100.199,33.6602 98.5,33.5C 98.5364,29.8001 100.203,27.1335 103.5,25.5 Z M 106.5,39.5 C 108.5,39.5 110.5,39.5 112.5,39.5C 112.177,43.1559 110.177,45.1559 106.5,45.5C 101.193,43.4565 101.193,41.4565 106.5,39.5 Z"/></g>
<g><path style="opacity:0.796" fill="#fefffe" d="M 118.5,26.5 C 120.607,25.5318 122.941,25.1984 125.5,25.5C 126.439,31.4818 128.272,37.1485 131,42.5C 132.667,37.1667 134.333,31.8333 136,26.5C 138.064,25.4086 140.231,25.2419 142.5,26C 138.672,36.1499 134.838,46.3166 131,56.5C 128.243,58.7949 125.077,59.7949 121.5,59.5C 121.5,57.8333 121.5,56.1667 121.5,54.5C 124.504,54.6653 126.504,53.3319 127.5,50.5C 124.864,42.2461 121.864,34.2461 118.5,26.5 Z"/></g>
</svg>
