<?xml version="1.0" encoding="UTF-8"?>
<!DOCTYPE svg PUBLIC "-//W3C//DTD SVG 1.1//EN" "http://www.w3.org/Graphics/SVG/1.1/DTD/svg11.dtd">
<svg xmlns="http://www.w3.org/2000/svg" version="1.1" width="177px" height="74px" style="shape-rendering:geometricPrecision; text-rendering:geometricPrecision; image-rendering:optimizeQuality; fill-rule:evenodd; clip-rule:evenodd" xmlns:xlink="http://www.w3.org/1999/xlink">
<g><path style="opacity:0.872" fill="#fefffe" d="M 26.5,19.5 C 32.5,19.5 38.5,19.5 44.5,19.5C 44.3433,20.8734 44.51,22.2068 45,23.5C 46.7998,21.683 48.9664,20.5163 51.5,20C 61.4944,19.5002 71.4944,19.3335 81.5,19.5C 81.5,22.8333 81.5,26.1667 81.5,29.5C 64.82,29.1672 48.1533,29.5005 31.5,30.5C 26.9578,37.752 22.2911,44.9186 17.5,52C 13.5,52.6667 9.5,52.6667 5.5,52C 12.3859,41.0533 19.3859,30.2199 26.5,19.5 Z"/></g>
<g><path style="opacity:0.919" fill="#fefffe" d="M 82.5,19.5 C 85.7766,19.2161 88.9433,19.5495 92,20.5C 92.1842,28.0795 92.6842,35.5795 93.5,43C 98.8333,43.6667 104.167,43.6667 109.5,43C 110.464,38.9341 110.797,34.7675 110.5,30.5C 124.829,31.2998 139.162,32.1332 153.5,33C 159.234,36.1801 161.067,41.0134 159,47.5C 158.167,49.6667 156.667,51.1667 154.5,52C 142.838,52.4999 131.171,52.6665 119.5,52.5C 119.657,51.1266 119.49,49.7932 119,48.5C 117.786,50.0488 116.286,51.2155 114.5,52C 105.5,52.6667 96.5,52.6667 87.5,52C 85.3333,51.1667 83.8333,49.6667 83,47.5C 81.5,49 80,50.5 78.5,52C 63.8371,52.4999 49.1705,52.6666 34.5,52.5C 34.5,45.1667 34.5,37.8333 34.5,30.5C 48.5133,31.0453 62.5133,31.8786 76.5,33C 78.5873,33.7922 80.4207,34.9588 82,36.5C 82.4994,30.8431 82.6661,25.1764 82.5,19.5 Z M 44.5,35.5 C 46.1133,37.2696 48.1133,38.4363 50.5,39C 58.6504,39.6243 66.6504,40.6243 74.5,42C 64.6654,43.4731 54.6654,43.9731 44.5,43.5C 44.5,40.8333 44.5,38.1667 44.5,35.5 Z M 120.5,35.5 C 122.308,36.9073 124.308,38.074 126.5,39C 134.508,39.7672 142.508,40.6005 150.5,41.5C 150.291,42.086 149.957,42.586 149.5,43C 139.839,43.4998 130.172,43.6665 120.5,43.5C 120.5,40.8333 120.5,38.1667 120.5,35.5 Z"/></g>
<g><path style="opacity:0.874" fill="#fefffe" d="M 110.5,19.5 C 113.518,19.3354 116.518,19.502 119.5,20C 120.191,21.0674 120.691,22.2341 121,23.5C 122.8,21.683 124.966,20.5163 127.5,20C 138.161,19.5002 148.828,19.3335 159.5,19.5C 159.5,22.8333 159.5,26.1667 159.5,29.5C 143.167,29.5 126.833,29.5 110.5,29.5C 110.5,26.1667 110.5,22.8333 110.5,19.5 Z"/></g>
<g><path style="opacity:0.431" fill="#fefffe" d="M 163.5,20.5 C 169.62,20.2591 171.287,22.7591 168.5,28C 161.745,28.7558 160.078,26.2558 163.5,20.5 Z"/></g>
</svg>
