<?xml version="1.0" encoding="UTF-8"?>
<!DOCTYPE svg PUBLIC "-//W3C//DTD SVG 1.1//EN" "http://www.w3.org/Graphics/SVG/1.1/DTD/svg11.dtd">
<svg xmlns="http://www.w3.org/2000/svg" version="1.1" width="177px" height="75px" style="shape-rendering:geometricPrecision; text-rendering:geometricPrecision; image-rendering:optimizeQuality; fill-rule:evenodd; clip-rule:evenodd" xmlns:xlink="http://www.w3.org/1999/xlink">
<g><path style="opacity:0.924" fill="#fefffe" d="M 5.5,17.5 C 18.1667,17.5 30.8333,17.5 43.5,17.5C 43.5,28.1667 43.5,38.8333 43.5,49.5C 40.8333,49.5 38.1667,49.5 35.5,49.5C 33.9807,18.8846 32.1473,18.8846 30,49.5C 21.7549,51.1028 13.5883,53.1028 5.5,55.5C 5.5,42.8333 5.5,30.1667 5.5,17.5 Z"/></g>
<g><path style="opacity:0.827" fill="#fefffe" d="M 59.5,27.5 C 63.0187,26.1923 66.6853,26.1923 70.5,27.5C 73.768,34.6392 76.4346,41.9725 78.5,49.5C 76.1667,49.5 73.8333,49.5 71.5,49.5C 71.7028,44.8932 69.5362,42.8932 65,43.5C 60.9497,42.7169 58.783,44.3836 58.5,48.5C 56.5,49.8333 54.5,49.8333 52.5,48.5C 55.3714,41.9248 58.3714,35.4248 61.5,29C 60.9558,28.2828 60.2891,27.7828 59.5,27.5 Z M 64.5,33.5 C 66.539,34.911 67.539,36.911 67.5,39.5C 65.712,39.7852 64.0453,39.4519 62.5,38.5C 63.4565,36.9246 64.1231,35.258 64.5,33.5 Z"/></g>
<g><path style="opacity:0.838" fill="#fefffe" d="M 76.5,27.5 C 79.6868,26.1944 83.0202,26.1944 86.5,27.5C 88.4313,32.1271 90.2647,36.7938 92,41.5C 94.3895,36.9975 96.3895,32.3308 98,27.5C 99.8138,26.2404 101.647,26.2404 103.5,27.5C 100.629,34.7392 97.6291,41.9059 94.5,49C 91.9009,49.769 89.4009,49.6023 87,48.5C 84.3333,41.8333 81.6667,35.1667 79,28.5C 78.3292,27.7476 77.4959,27.4142 76.5,27.5 Z"/></g>
<g><path style="opacity:0.824" fill="#fefffe" d="M 106.5,27.5 C 109.287,26.5233 112.287,26.19 115.5,26.5C 115.5,34.1667 115.5,41.8333 115.5,49.5C 113.167,49.5 110.833,49.5 108.5,49.5C 108.666,42.4921 108.5,35.4921 108,28.5C 107.617,27.944 107.117,27.6107 106.5,27.5 Z"/></g>
<g><path style="opacity:0.841" fill="#fefffe" d="M 117.5,27.5 C 120.687,26.1944 124.02,26.1944 127.5,27.5C 129.243,31.9838 131.243,36.3171 133.5,40.5C 135.769,36.2952 137.769,31.9619 139.5,27.5C 141.045,26.5481 142.712,26.2148 144.5,26.5C 141.964,33.9126 139.131,41.246 136,48.5C 133.333,49.8333 130.667,49.8333 128,48.5C 125.667,42.5 123.333,36.5 121,30.5C 120.578,28.5743 119.411,27.5743 117.5,27.5 Z"/></g>
<g><path style="opacity:0.832" fill="#fefffe" d="M 150.5,27.5 C 154.019,26.1923 157.685,26.1923 161.5,27.5C 164.768,34.6392 167.435,41.9725 169.5,49.5C 167.167,49.5 164.833,49.5 162.5,49.5C 162.703,44.8932 160.536,42.8932 156,43.5C 151.464,42.8932 149.297,44.8932 149.5,49.5C 147.396,49.7989 145.396,49.4656 143.5,48.5C 146.371,41.9248 149.371,35.4248 152.5,29C 151.956,28.2828 151.289,27.7828 150.5,27.5 Z M 155.5,33.5 C 157.539,34.911 158.539,36.911 158.5,39.5C 156.712,39.7852 155.045,39.4519 153.5,38.5C 154.456,36.9246 155.123,35.258 155.5,33.5 Z"/></g>
</svg>
