<?xml version="1.0" encoding="UTF-8"?>
<!DOCTYPE svg PUBLIC "-//W3C//DTD SVG 1.1//EN" "http://www.w3.org/Graphics/SVG/1.1/DTD/svg11.dtd">
<svg xmlns="http://www.w3.org/2000/svg" version="1.1" width="177px" height="74px" style="shape-rendering:geometricPrecision; text-rendering:geometricPrecision; image-rendering:optimizeQuality; fill-rule:evenodd; clip-rule:evenodd" xmlns:xlink="http://www.w3.org/1999/xlink">
<g><path style="opacity:0.768" fill="#fefffe" d="M 25.5,13.5 C 30.1327,15.4829 34.466,17.9829 38.5,21C 36.9328,22.0758 35.2662,22.9091 33.5,23.5C 30.9574,22.3112 28.4574,20.9778 26,19.5C 22.4772,23.6986 18.6439,24.1986 14.5,21C 18.2326,18.4772 21.8992,15.9772 25.5,13.5 Z"/></g>
<g><path style="opacity:0.757" fill="#fefffe" d="M 104.5,18.5 C 106.144,18.2865 107.644,18.6198 109,19.5C 111.869,24.9462 114.036,30.6129 115.5,36.5C 112.506,35.5198 109.673,34.1865 107,32.5C 104.305,33.2554 101.972,34.5887 100,36.5C 99.1667,36.3333 98.3333,36.1667 97.5,36C 100.328,30.3469 102.661,24.5136 104.5,18.5 Z M 106.5,25.5 C 109.377,27.8455 109.044,28.6789 105.5,28C 106.252,27.3292 106.586,26.4959 106.5,25.5 Z"/></g>
<g><path style="opacity:0.742" fill="#fefffe" d="M 144.5,18.5 C 147.972,18.1262 150.972,19.1262 153.5,21.5C 151.952,24.951 149.952,25.2844 147.5,22.5C 141.822,24.7053 141.155,27.872 145.5,32C 147.669,32.4294 149.669,31.9294 151.5,30.5C 154.255,32.7612 153.922,34.5945 150.5,36C 140.64,37.1452 136.806,32.9785 139,23.5C 140.107,20.887 141.94,19.2203 144.5,18.5 Z"/></g>
<g><path style="opacity:0.832" fill="#fefffe" d="M 52.5,19.5 C 56.5138,19.3345 60.5138,19.5012 64.5,20C 66.9938,22.4231 66.9938,24.7564 64.5,27C 68.0199,29.2373 68.3532,31.9039 65.5,35C 61.1794,35.499 56.8461,35.6657 52.5,35.5C 52.5,30.1667 52.5,24.8333 52.5,19.5 Z M 56.5,23.5 C 58.288,23.2148 59.9547,23.5481 61.5,24.5C 60.6667,24.8333 59.8333,25.1667 59,25.5C 57.6244,25.3158 56.7911,24.6491 56.5,23.5 Z M 56.5,29.5 C 58.604,29.2011 60.604,29.5344 62.5,30.5C 60.9775,32.2825 58.9775,32.9492 56.5,32.5C 56.5,31.5 56.5,30.5 56.5,29.5 Z"/></g>
<g><path style="opacity:0.694" fill="#fefffe" d="M 70.5,19.5 C 72.1667,19.5 73.8333,19.5 75.5,19.5C 75.5,25.1667 75.5,30.8333 75.5,36.5C 73.8333,36.5 72.1667,36.5 70.5,36.5C 70.5,30.8333 70.5,25.1667 70.5,19.5 Z"/></g>
<g><path style="opacity:0.819" fill="#fefffe" d="M 79.5,19.5 C 81.1992,19.3398 82.8659,19.5065 84.5,20C 86.3333,22.5 88.1667,25 90,27.5C 90.4974,24.854 90.6641,22.1873 90.5,19.5C 91.8333,19.5 93.1667,19.5 94.5,19.5C 94.5,25.1667 94.5,30.8333 94.5,36.5C 89.6086,34.7789 86.1086,31.4455 84,26.5C 83.5017,29.8168 83.335,33.1501 83.5,36.5C 82.1667,36.5 80.8333,36.5 79.5,36.5C 79.5,30.8333 79.5,25.1667 79.5,19.5 Z"/></g>
<g><path style="opacity:0.724" fill="#fefffe" d="M 118.5,19.5 C 120.199,19.3398 121.866,19.5065 123.5,20C 125.452,22.0739 127.285,24.2406 129,26.5C 129.497,24.1902 129.663,21.8568 129.5,19.5C 131.167,19.5 132.833,19.5 134.5,19.5C 134.5,25.1667 134.5,30.8333 134.5,36.5C 133.127,36.6567 131.793,36.49 130.5,36C 128.333,33.1667 126.167,30.3333 124,27.5C 123.502,30.4816 123.335,33.4816 123.5,36.5C 121.833,36.5 120.167,36.5 118.5,36.5C 118.5,30.8333 118.5,25.1667 118.5,19.5 Z"/></g>
<g><path style="opacity:0.787" fill="#fefffe" d="M 157.5,19.5 C 161.833,19.5 166.167,19.5 170.5,19.5C 170.5,20.8333 170.5,22.1667 170.5,23.5C 167.428,23.1826 164.428,23.5159 161.5,24.5C 164.086,25.48 166.753,25.8134 169.5,25.5C 169.5,26.8333 169.5,28.1667 169.5,29.5C 166.833,29.5 164.167,29.5 161.5,29.5C 161.5,30.5 161.5,31.5 161.5,32.5C 164.5,32.5 167.5,32.5 170.5,32.5C 170.5,33.8333 170.5,35.1667 170.5,36.5C 166.167,36.5 161.833,36.5 157.5,36.5C 157.5,30.8333 157.5,25.1667 157.5,19.5 Z"/></g>
<g><path style="opacity:0.763" fill="#fefffe" d="M 10.5,22.5 C 12.7834,22.6079 14.7834,23.4412 16.5,25C 13.0586,26.3184 11.7253,28.8184 12.5,32.5C 9.17023,32.8365 7.50357,31.3365 7.5,28C 7.11968,25.2966 8.11968,23.4632 10.5,22.5 Z"/></g>
<g><path style="opacity:0.674" fill="#fefffe" d="M 24.5,22.5 C 31.4849,23.4215 31.9849,25.4215 26,28.5C 24.5905,27.2125 23.0905,26.0458 21.5,25C 22.5707,24.1482 23.5707,23.3149 24.5,22.5 Z"/></g>
<g><path style="opacity:0.769" fill="#fefffe" d="M 39.5,22.5 C 45.0226,22.5619 46.856,25.2286 45,30.5C 41.6826,33.27 39.8493,32.27 39.5,27.5C 35.7713,25.9294 35.7713,24.2627 39.5,22.5 Z"/></g>
<g><path style="opacity:0.874" fill="#fefffe" d="M 17.5,26.5 C 20.5549,27.5236 23.5549,28.8569 26.5,30.5C 28.6705,28.9138 31.0038,27.5804 33.5,26.5C 37.8097,27.6329 39.3097,30.2996 38,34.5C 35.6667,36.1667 33.3333,37.8333 31,39.5C 30.8214,42.5535 30.3214,45.5535 29.5,48.5C 26.8047,50.9429 24.3047,50.6095 22,47.5C 22.7049,41.7397 20.5382,37.7397 15.5,35.5C 15.1667,34.3333 14.8333,33.1667 14.5,32C 14.6846,29.6241 15.6846,27.7908 17.5,26.5 Z"/></g>
<g><path style="opacity:0.789" fill="#fefffe" d="M 7.5,33.5 C 8.80678,34.1534 10.1401,34.8201 11.5,35.5C 12.3214,38.4465 12.8214,41.4465 13,44.5C 14.828,46.0814 16.828,47.4147 19,48.5C 19.6667,50.5 19.6667,52.5 19,54.5C 15.4186,52.6265 11.9186,50.6265 8.5,48.5C 7.50585,43.544 7.17252,38.544 7.5,33.5 Z"/></g>
<g><path style="opacity:0.781" fill="#fefffe" d="M 43.5,33.5 C 44.8048,35.3972 45.4714,37.7305 45.5,40.5C 45.3333,42.8333 45.1667,45.1667 45,47.5C 41.25,49.9589 37.4166,52.2922 33.5,54.5C 32.1667,52.5 32.1667,50.5 33.5,48.5C 35.583,47.0413 37.7497,45.7079 40,44.5C 40.3333,41.5 40.6667,38.5 41,35.5C 41.9947,34.9341 42.828,34.2674 43.5,33.5 Z"/></g>
<g><path style="opacity:0.675" fill="#fefffe" d="M 14.5,37.5 C 18.8766,38.6249 20.2099,41.2916 18.5,45.5C 14.906,44.1121 13.5727,41.4454 14.5,37.5 Z"/></g>
<g><path style="opacity:0.678" fill="#fefffe" d="M 36.5,37.5 C 39.2344,40.6855 38.5678,43.3522 34.5,45.5C 32.8361,42.0901 33.5027,39.4234 36.5,37.5 Z"/></g>
<g><path style="opacity:0.639" fill="#fefffe" d="M 54.5,39.5 C 57.1569,39.162 59.4902,39.8287 61.5,41.5C 61.1924,42.3081 60.6924,42.9747 60,43.5C 58.5064,42.2528 57.0064,42.2528 55.5,43.5C 60.3383,43.9912 62.3383,46.6578 61.5,51.5C 58.498,52.928 55.6647,52.5946 53,50.5C 52.4372,49.2752 52.7705,48.2752 54,47.5C 55.2408,49.4206 56.7408,49.754 58.5,48.5C 56.8208,47.218 54.9874,46.218 53,45.5C 52.2516,43.1599 52.7516,41.1599 54.5,39.5 Z"/></g>
<g><path style="opacity:0.687" fill="#fefffe" d="M 63.5,39.5 C 66.595,39.6263 68.4283,41.293 69,44.5C 70.1912,41.4659 72.3579,39.7993 75.5,39.5C 75.5,43.5 75.5,47.5 75.5,51.5C 74.5,51.5 73.5,51.5 72.5,51.5C 72.6621,49.4727 72.4955,47.4727 72,45.5C 70.8567,48.9153 69.19,49.2486 67,46.5C 66.5065,48.1341 66.3398,49.8008 66.5,51.5C 65.5,51.5 64.5,51.5 63.5,51.5C 63.5,47.5 63.5,43.5 63.5,39.5 Z"/></g>
<g><path style="opacity:0.641" fill="#fefffe" d="M 81.5,39.5 C 82.675,39.281 83.675,39.6143 84.5,40.5C 85.7655,44.1975 87.4322,47.6975 89.5,51C 87.1046,51.1565 84.7712,50.6565 82.5,49.5C 80.8651,49.8777 79.3651,50.5444 78,51.5C 77.5,51.1667 77,50.8333 76.5,50.5C 78.367,46.888 80.0337,43.2213 81.5,39.5 Z M 82.5,44.5 C 83.7733,45.0768 83.7733,45.7435 82.5,46.5C 81.537,46.0302 81.537,45.3635 82.5,44.5 Z"/></g>
<g><path style="opacity:0.699" fill="#fefffe" d="M 90.5,39.5 C 92.8568,39.3367 95.1902,39.5034 97.5,40C 101.179,42.0879 101.512,44.7545 98.5,48C 100.312,49.6269 100.479,51.1269 99,52.5C 97.2856,51.9238 96.1189,50.7571 95.5,49C 94.552,48.5172 93.552,48.3505 92.5,48.5C 92.762,49.9778 92.4287,51.3112 91.5,52.5C 90.5078,48.2172 90.1744,43.8839 90.5,39.5 Z M 92.5,42.5 C 94.288,42.2148 95.9547,42.5481 97.5,43.5C 96.3315,45.2174 94.6648,45.8841 92.5,45.5C 92.5,44.5 92.5,43.5 92.5,42.5 Z"/></g>
<g><path style="opacity:0.621" fill="#fefffe" d="M 101.5,39.5 C 104.833,39.5 108.167,39.5 111.5,39.5C 111.5,40.5 111.5,41.5 111.5,42.5C 110.167,42.5 108.833,42.5 107.5,42.5C 107.5,45.5 107.5,48.5 107.5,51.5C 106.5,51.5 105.5,51.5 104.5,51.5C 104.5,48.5 104.5,45.5 104.5,42.5C 103.5,42.5 102.5,42.5 101.5,42.5C 101.5,41.5 101.5,40.5 101.5,39.5 Z"/></g>
<g><path style="opacity:0.615" fill="#fefffe" d="M 120.5,39.5 C 122.527,39.3379 124.527,39.5045 126.5,40C 127.731,41.1827 127.731,42.3493 126.5,43.5C 123.477,41.8386 121.143,42.5053 119.5,45.5C 121.078,49.4758 123.411,50.1425 126.5,47.5C 127.308,47.8076 127.975,48.3076 128.5,49C 123.138,53.996 119.138,52.996 116.5,46C 116.836,43.0795 118.17,40.9129 120.5,39.5 Z"/></g>
<g><path style="opacity:0.656" fill="#fefffe" d="M 129.5,39.5 C 130.5,39.5 131.5,39.5 132.5,39.5C 132.5,41.1667 132.5,42.8333 132.5,44.5C 133.833,44.5 135.167,44.5 136.5,44.5C 136.5,42.8333 136.5,41.1667 136.5,39.5C 137.5,39.5 138.5,39.5 139.5,39.5C 139.5,43.5 139.5,47.5 139.5,51.5C 138.5,51.5 137.5,51.5 136.5,51.5C 136.5,50.1667 136.5,48.8333 136.5,47.5C 135.167,47.5 133.833,47.5 132.5,47.5C 132.5,48.8333 132.5,50.1667 132.5,51.5C 131.5,51.5 130.5,51.5 129.5,51.5C 129.5,47.5 129.5,43.5 129.5,39.5 Z"/></g>
<g><path style="opacity:0.655" fill="#fefffe" d="M 145.5,39.5 C 146.675,39.281 147.675,39.6143 148.5,40.5C 150.311,43.9547 151.978,47.4547 153.5,51C 151.243,51.1116 149.076,50.6116 147,49.5C 144.924,50.6116 142.757,51.1116 140.5,51C 142.308,47.2188 143.974,43.3854 145.5,39.5 Z"/></g>
<g><path style="opacity:0.633" fill="#fefffe" d="M 154.5,39.5 C 155.5,39.5 156.5,39.5 157.5,39.5C 157.5,43.5 157.5,47.5 157.5,51.5C 156.5,51.5 155.5,51.5 154.5,51.5C 154.5,47.5 154.5,43.5 154.5,39.5 Z"/></g>
<g><path style="opacity:0.657" fill="#fefffe" d="M 159.5,39.5 C 160.552,39.3505 161.552,39.5172 162.5,40C 166.178,46.9815 167.844,46.8148 167.5,39.5C 168.5,39.5 169.5,39.5 170.5,39.5C 170.5,43.5 170.5,47.5 170.5,51.5C 167.012,50.8566 164.512,48.8566 163,45.5C 162.505,47.4727 162.338,49.4727 162.5,51.5C 161.5,51.5 160.5,51.5 159.5,51.5C 159.5,47.5 159.5,43.5 159.5,39.5 Z"/></g>
<g><path style="opacity:0.764" fill="#fefffe" d="M 21.5,50.5 C 23.258,50.8769 24.9246,51.5435 26.5,52.5C 30.3948,49.9945 31.5615,51.3278 30,56.5C 27.4556,59.0801 24.9556,59.0801 22.5,56.5C 21.5344,54.604 21.2011,52.604 21.5,50.5 Z"/></g>
</svg>
