<?xml version="1.0" encoding="UTF-8"?>
<!DOCTYPE svg PUBLIC "-//W3C//DTD SVG 1.1//EN" "http://www.w3.org/Graphics/SVG/1.1/DTD/svg11.dtd">
<svg xmlns="http://www.w3.org/2000/svg" version="1.1" width="177px" height="74px" style="shape-rendering:geometricPrecision; text-rendering:geometricPrecision; image-rendering:optimizeQuality; fill-rule:evenodd; clip-rule:evenodd" xmlns:xlink="http://www.w3.org/1999/xlink">
<g><path style="opacity:0.938" fill="#fefffe" d="M 16.5,4.5 C 20.7292,6.55672 24.5625,9.22339 28,12.5C 28.3333,26.1667 28.6667,39.8333 29,53.5C 34.4154,49.8751 39.9154,46.3751 45.5,43C 42.4883,42.2196 39.6549,41.0529 37,39.5C 35.6667,36.1667 34.3333,32.8333 33,29.5C 32.2571,27.5594 32.4238,25.7261 33.5,24C 40.5392,25.7748 46.7059,29.2748 52,34.5C 56.3724,43.5104 54.8724,51.3438 47.5,58C 43.2943,60.6023 38.961,62.9357 34.5,65C 25.4072,66.9773 18.9072,63.8107 15,55.5C 14.8333,47.1667 14.6667,38.8333 14.5,30.5C 14.5292,21.6024 15.1958,12.9358 16.5,4.5 Z"/></g>
<g><path style="opacity:0.748" fill="#fefffe" d="M 101.5,15.5 C 106.486,15.3049 108.152,17.4716 106.5,22C 100.013,23.1579 98.3468,20.9912 101.5,15.5 Z"/></g>
<g><path style="opacity:0.888" fill="#fefffe" d="M 72.5,17.5 C 78.1764,17.3339 83.8431,17.5006 89.5,18C 97.0611,22.8253 97.3944,28.1586 90.5,34C 94.8332,35.1612 96.8332,37.9946 96.5,42.5C 96.6507,47.0331 94.6507,50.1998 90.5,52C 84.5933,53.3608 78.5933,53.8608 72.5,53.5C 72.5,41.5 72.5,29.5 72.5,17.5 Z M 78.5,22.5 C 81.0661,22.3444 83.5661,22.6777 86,23.5C 89.344,26.1635 89.1774,28.6635 85.5,31C 83.1902,31.4966 80.8568,31.6633 78.5,31.5C 78.5,28.5 78.5,25.5 78.5,22.5 Z M 78.5,37.5 C 82.2568,37.0708 85.7568,37.7375 89,39.5C 90.2121,42.8342 89.3788,45.3342 86.5,47C 83.854,47.4974 81.1873,47.6641 78.5,47.5C 78.5,44.1667 78.5,40.8333 78.5,37.5 Z"/></g>
<g><path style="opacity:0.797" fill="#fefffe" d="M 123.5,26.5 C 130.893,25.7261 134.727,29.0594 135,36.5C 135.667,41.8333 135.667,47.1667 135,52.5C 132.959,53.4231 130.792,53.7564 128.5,53.5C 128.666,47.4908 128.499,41.4908 128,35.5C 127.521,33.354 126.188,32.354 124,32.5C 121.695,32.4841 120.028,33.4841 119,35.5C 118.501,41.4908 118.334,47.4908 118.5,53.5C 116.167,53.5 113.833,53.5 111.5,53.5C 111.5,44.8333 111.5,36.1667 111.5,27.5C 114.394,27.0423 116.894,27.709 119,29.5C 120.409,28.2189 121.909,27.2189 123.5,26.5 Z"/></g>
<g><path style="opacity:0.832" fill="#fefffe" d="M 146.5,26.5 C 150.192,25.9712 153.358,26.9712 156,29.5C 158.106,27.709 160.606,27.0423 163.5,27.5C 163.895,37.5657 163.395,47.5657 162,57.5C 159.223,62.8146 154.723,65.4813 148.5,65.5C 145.792,64.9589 143.126,64.2923 140.5,63.5C 139.167,61.5 139.167,59.5 140.5,57.5C 146.328,60.7932 151.495,60.1266 156,55.5C 156.667,53.8333 156.667,52.1667 156,50.5C 145.708,56.2715 139.541,53.2715 137.5,41.5C 137.234,34.3393 140.234,29.3393 146.5,26.5 Z M 147.5,32.5 C 155.889,32.23 158.723,36.23 156,44.5C 151.853,50.0503 148.186,49.7169 145,43.5C 144.125,39.4011 144.959,35.7344 147.5,32.5 Z"/></g>
<g><path style="opacity:0.906" fill="#fefffe" d="M 100.5,27.5 C 102.5,27.5 104.5,27.5 106.5,27.5C 106.5,36.1667 106.5,44.8333 106.5,53.5C 104.5,53.5 102.5,53.5 100.5,53.5C 100.5,44.8333 100.5,36.1667 100.5,27.5 Z"/></g>
</svg>
