<?xml version="1.0" encoding="UTF-8"?>
<!DOCTYPE svg PUBLIC "-//W3C//DTD SVG 1.1//EN" "http://www.w3.org/Graphics/SVG/1.1/DTD/svg11.dtd">
<svg xmlns="http://www.w3.org/2000/svg" version="1.1" width="177px" height="75px" style="shape-rendering:geometricPrecision; text-rendering:geometricPrecision; image-rendering:optimizeQuality; fill-rule:evenodd; clip-rule:evenodd" xmlns:xlink="http://www.w3.org/1999/xlink">
<g><path style="opacity:0.846" fill="#fefffe" d="M 21.5,18.5 C 33.528,18.6753 40.528,24.6753 42.5,36.5C 42.3684,38.601 41.3684,40.101 39.5,41C 40.1667,41.3333 40.8333,41.6667 41.5,42C 35.3154,54.3941 25.9821,57.3941 13.5,51C 5.74541,43.4685 4.57874,34.9685 10,25.5C 12.2194,22.6395 15.0527,20.6395 18.5,19.5C 19.8813,21.9288 20.8813,21.5954 21.5,18.5 Z M 15.5,45.5 C 12.3843,40.7943 11.8843,35.7943 14,30.5C 16.4189,28.1496 18.7522,25.8162 21,23.5C 21.8423,27.8693 22.8423,32.2026 24,36.5C 28.3694,38.051 32.8694,39.2176 37.5,40C 34.7932,43.3655 31.4599,46.0322 27.5,48C 23.1438,48.7108 19.1438,47.8775 15.5,45.5 Z"/></g>
<g><path style="opacity:0.499" fill="#fefffe" d="M 56.5,26.5 C 61.7631,25.2627 65.4298,27.0961 67.5,32C 65.3351,30.5993 62.8351,29.4326 60,28.5C 57.463,28.7 55.7963,30.0333 55,32.5C 53.2427,38.2582 54.9094,42.5916 60,45.5C 62.8812,44.7882 65.0478,43.1215 66.5,40.5C 67.2294,42.595 66.5628,44.4284 64.5,46C 54.3891,47.2087 50.5557,42.7087 53,32.5C 53.5637,30.1133 54.7304,28.1133 56.5,26.5 Z"/></g>
<g><path style="opacity:0.658" fill="#fefffe" d="M 111.5,26.5 C 114.249,26.2739 116.916,26.6072 119.5,27.5C 120.95,28.8498 121.617,30.5165 121.5,32.5C 119.336,31.5225 117.17,30.5225 115,29.5C 111.715,29.7003 110.882,31.2003 112.5,34C 115.512,34.7804 118.345,35.9471 121,37.5C 121.769,40.0991 121.602,42.5991 120.5,45C 117.298,46.4833 113.964,46.8166 110.5,46C 108.393,44.7365 107.393,42.9032 107.5,40.5C 109.813,41.6683 112.146,43.0017 114.5,44.5C 115.736,43.7542 117.07,43.4208 118.5,43.5C 118.714,41.8561 118.38,40.3561 117.5,39C 114.488,38.2196 111.655,37.0529 109,35.5C 107.779,31.7179 108.613,28.7179 111.5,26.5 Z"/></g>
<g><path style="opacity:0.656" fill="#fefffe" d="M 86.5,27.5 C 88.337,27.6395 88.6704,28.3061 87.5,29.5C 86.7025,29.0431 86.3691,28.3764 86.5,27.5 Z"/></g>
<g><path style="opacity:0.688" fill="#fefffe" d="M 126.5,27.5 C 128.176,28.1834 128.843,29.5168 128.5,31.5C 129.5,31.5 130.5,31.5 131.5,31.5C 131.5,32.5 131.5,33.5 131.5,34.5C 130.5,34.5 129.5,34.5 128.5,34.5C 128.335,37.5184 128.502,40.5184 129,43.5C 129.925,44.0465 130.758,44.7132 131.5,45.5C 129.955,46.4519 128.288,46.7852 126.5,46.5C 125.25,40.1229 125.25,33.7895 126.5,27.5 Z"/></g>
<g><path style="opacity:0.677" fill="#fefffe" d="M 150.5,27.5 C 151.5,27.5 152.5,27.5 153.5,27.5C 153.5,28.8333 153.5,30.1667 153.5,31.5C 156.957,31.6672 157.29,32.6672 154.5,34.5C 153.513,37.7683 153.18,41.1016 153.5,44.5C 154.675,44.281 155.675,44.6143 156.5,45.5C 154.647,46.7596 152.814,46.7596 151,45.5C 150.501,39.5092 150.334,33.5092 150.5,27.5 Z"/></g>
<g><path style="opacity:0.502" fill="#fefffe" d="M 73.5,31.5 C 81.8894,31.23 84.7227,35.23 82,43.5C 79.8328,46.2868 76.9994,47.1201 73.5,46C 72.3333,45.5 71.5,44.6667 71,43.5C 69.7734,38.938 70.6067,34.938 73.5,31.5 Z M 74.5,33.5 C 76.7659,33.1412 78.5993,33.8078 80,35.5C 80.7772,38.4294 80.6105,41.2628 79.5,44C 72.9908,44.8764 70.8242,42.0431 73,35.5C 73.7172,34.9558 74.2172,34.2891 74.5,33.5 Z"/></g>
<g><path style="opacity:0.471" fill="#fefffe" d="M 86.5,31.5 C 87.8086,33.5706 88.4752,36.0706 88.5,39C 88.1667,41.5 87.8333,44 87.5,46.5C 86.5059,41.544 86.1725,36.544 86.5,31.5 Z"/></g>
<g><path style="opacity:0.487" fill="#fefffe" d="M 93.5,31.5 C 95.2627,32.6302 97.0961,32.6302 99,31.5C 100.895,31.6148 102.562,32.2815 104,33.5C 104.828,37.8713 104.661,42.2047 103.5,46.5C 102.673,42.5408 102.173,38.5408 102,34.5C 100.204,33.233 98.3707,33.233 96.5,34.5C 95.8333,38.5 95.1667,42.5 94.5,46.5C 93.5059,41.544 93.1725,36.544 93.5,31.5 Z"/></g>
<g><path style="opacity:0.677" fill="#fefffe" d="M 137.5,31.5 C 140.685,31.0196 143.519,31.6863 146,33.5C 146.499,37.8206 146.666,42.1539 146.5,46.5C 143.15,46.665 139.817,46.4983 136.5,46C 133.965,43.5425 133.965,41.0425 136.5,38.5C 138.747,37.6258 141.08,37.2924 143.5,37.5C 143.853,35.3652 143.02,34.0319 141,33.5C 139.518,35.1119 137.685,36.1119 135.5,36.5C 135.392,34.4862 136.058,32.8195 137.5,31.5 Z M 138.5,40.5 C 140.167,40.5 141.833,40.5 143.5,40.5C 142.453,44.8577 140.453,45.3577 137.5,42C 138.056,41.6174 138.389,41.1174 138.5,40.5 Z"/></g>
<g><path style="opacity:0.641" fill="#fefffe" d="M 160.5,31.5 C 163.448,31.2229 166.281,31.5562 169,32.5C 170.982,34.2456 170.815,35.5789 168.5,36.5C 166.608,33.49 164.608,33.1567 162.5,35.5C 164.416,37.3173 166.749,38.484 169.5,39C 171.661,44.01 169.994,46.51 164.5,46.5C 160.643,46.9714 158.643,45.3047 158.5,41.5C 160.749,42.2311 162.916,43.2311 165,44.5C 166.28,44.3865 167.113,43.7199 167.5,42.5C 165.318,40.706 162.818,39.3727 160,38.5C 159.297,36.0709 159.463,33.7375 160.5,31.5 Z"/></g>
</svg>
