<?xml version="1.0" encoding="UTF-8"?>
<!DOCTYPE svg PUBLIC "-//W3C//DTD SVG 1.1//EN" "http://www.w3.org/Graphics/SVG/1.1/DTD/svg11.dtd">
<svg xmlns="http://www.w3.org/2000/svg" version="1.1" width="177px" height="74px" style="shape-rendering:geometricPrecision; text-rendering:geometricPrecision; image-rendering:optimizeQuality; fill-rule:evenodd; clip-rule:evenodd" xmlns:xlink="http://www.w3.org/1999/xlink">
<g><path style="opacity:0.655" fill="#fefffe" d="M 31.5,38.5 C 30.5084,38.3284 29.8417,38.6618 29.5,39.5C 27.9731,39.427 26.9731,40.0937 26.5,41.5C 25.5084,41.3284 24.8417,41.6618 24.5,42.5C 23.5084,42.3284 22.8417,42.6618 22.5,43.5C 21.8333,43.5 21.5,43.8333 21.5,44.5C 20.1667,44.5 18.8333,44.5 17.5,44.5C 17.0269,43.0937 16.0269,42.427 14.5,42.5C 14.1583,41.6618 13.4916,41.3284 12.5,41.5C 12.0269,40.0937 11.0269,39.427 9.5,39.5C 8.33977,38.735 7.33977,37.735 6.5,36.5C 10.6667,29.5 14.8333,22.5 19,15.5C 23.3333,22.1667 27.6667,28.8333 32,35.5C 32.4696,36.5768 32.3029,37.5768 31.5,38.5 Z"/></g>
<g><path style="opacity:0.507" fill="#fefffe" d="M 71.5,23.5 C 73.4023,26.3373 74.069,29.6707 73.5,33.5C 77.471,32.7577 80.3043,34.091 82,37.5C 82.8902,40.7055 82.5569,43.7055 81,46.5C 80.7537,43.1103 80.2537,39.777 79.5,36.5C 78.0006,34.1422 76.3339,33.9756 74.5,36C 73.9556,39.603 73.1223,43.103 72,46.5C 71.5003,38.8406 71.3336,31.1739 71.5,23.5 Z"/></g>
<g><path style="opacity:0.722" fill="#fefffe" d="M 61.5,28.5 C 62.4511,29.9187 62.7845,31.5853 62.5,33.5C 67.6294,33.719 67.6294,34.3856 62.5,35.5C 62.1667,50.1667 61.8333,50.1667 61.5,35.5C 57.5,34.8333 57.5,34.1667 61.5,33.5C 61.5,31.8333 61.5,30.1667 61.5,28.5 Z"/></g>
<g><path style="opacity:0.519" fill="#fefffe" d="M 46.5,32.5 C 50.9996,33.3297 53.333,35.9964 53.5,40.5C 50.1016,40.1796 46.7683,40.513 43.5,41.5C 45.7291,45.0549 48.3958,45.3882 51.5,42.5C 52.5709,44.3255 51.9042,45.4921 49.5,46C 42.6248,46.4482 40.1248,43.2815 42,36.5C 42.9066,34.3909 44.4066,33.0576 46.5,32.5 Z M 46.5,34.5 C 48.5441,35.0312 50.2107,36.1978 51.5,38C 48.7728,38.8184 46.1062,38.6517 43.5,37.5C 44.3398,36.265 45.3398,35.265 46.5,34.5 Z"/></g>
<g><path style="opacity:0.509" fill="#fefffe" d="M 93.5,32.5 C 98.1582,33.1596 100.158,35.8263 99.5,40.5C 96.1501,40.335 92.8168,40.5017 89.5,41C 90.4144,42.9139 91.9144,44.0806 94,44.5C 99.3414,41.3931 100.175,41.8931 96.5,46C 89.6667,47.1667 86.8333,44.3333 88,37.5C 89.1065,34.887 90.9399,33.2203 93.5,32.5 Z M 92.5,34.5 C 94.6449,34.7377 96.3115,35.7377 97.5,37.5C 94.8938,38.6517 92.2272,38.8184 89.5,38C 90.7101,36.9609 91.7101,35.7942 92.5,34.5 Z"/></g>
<g><path style="opacity:0.538" fill="#fefffe" d="M 121.5,32.5 C 126.342,33.0073 128.676,35.674 128.5,40.5C 125.102,40.1796 121.768,40.513 118.5,41.5C 120.729,45.0549 123.396,45.3882 126.5,42.5C 127.571,44.3255 126.904,45.4921 124.5,46C 117.892,46.3359 115.392,43.1693 117,36.5C 118.25,34.8065 119.75,33.4732 121.5,32.5 Z M 121.5,34.5 C 123.844,34.6748 125.511,35.8415 126.5,38C 123.773,38.8184 121.106,38.6517 118.5,37.5C 119.34,36.265 120.34,35.265 121.5,34.5 Z"/></g>
<g><path style="opacity:0.492" fill="#fefffe" d="M 105.5,33.5 C 107.681,33.9141 110.015,34.0808 112.5,34C 110.91,35.0458 109.41,36.2125 108,37.5C 107.667,40.5 107.333,43.5 107,46.5C 105.569,42.3654 105.069,38.032 105.5,33.5 Z"/></g>
<g><path style="opacity:0.601" fill="#fefffe" d="M 134.5,33.5 C 136.25,36.3554 137.083,39.6887 137,43.5C 138.667,44.8333 140.333,44.8333 142,43.5C 142.882,40.2105 143.548,36.8772 144,33.5C 144.667,37.8333 144.667,42.1667 144,46.5C 143.667,45.8333 143.333,45.1667 143,44.5C 140.541,47.1003 138.041,47.1003 135.5,44.5C 134.574,40.9062 134.241,37.2396 134.5,33.5 Z"/></g>
<g><path style="opacity:0.512" fill="#fefffe" d="M 150.5,33.5 C 153.337,33.7294 156.337,33.896 159.5,34C 160.5,36 161.5,36 162.5,34C 165.834,32.7879 168.334,33.6212 170,36.5C 170.903,40.0332 170.57,43.3665 169,46.5C 168.667,43.5 168.333,40.5 168,37.5C 166,33.5 164,33.5 162,37.5C 160.946,49.1574 159.946,48.8241 159,36.5C 156.679,33.9675 154.679,34.3008 153,37.5C 152.667,40.5 152.333,43.5 152,46.5C 150.569,42.3654 150.069,38.032 150.5,33.5 Z"/></g>
<g><path style="opacity:0.482" fill="#fefffe" d="M 31.5,38.5 C 32.525,38.8966 32.6917,39.5632 32,40.5C 27.6667,46.1667 23.3333,51.8333 19,57.5C 15.2014,51.4025 11.0348,45.5692 6.5,40C 7.44802,39.5172 8.44802,39.3505 9.5,39.5C 9.97306,40.9063 10.9731,41.573 12.5,41.5C 12.8417,42.3382 13.5084,42.6716 14.5,42.5C 14.9731,43.9063 15.9731,44.573 17.5,44.5C 18.8333,45.8333 20.1667,45.8333 21.5,44.5C 22.1667,44.5 22.5,44.1667 22.5,43.5C 23.4916,43.6716 24.1583,43.3382 24.5,42.5C 25.4916,42.6716 26.1583,42.3382 26.5,41.5C 28.0269,41.573 29.0269,40.9063 29.5,39.5C 30.4916,39.6716 31.1583,39.3382 31.5,38.5 Z M 9.5,39.5 C 11.0269,39.427 12.0269,40.0937 12.5,41.5C 10.9731,41.573 9.97306,40.9063 9.5,39.5 Z M 29.5,39.5 C 29.0269,40.9063 28.0269,41.573 26.5,41.5C 26.9731,40.0937 27.9731,39.427 29.5,39.5 Z M 14.5,42.5 C 16.0269,42.427 17.0269,43.0937 17.5,44.5C 15.9731,44.573 14.9731,43.9063 14.5,42.5 Z"/></g>
</svg>
