<?xml version="1.0" encoding="UTF-8"?>
<!DOCTYPE svg PUBLIC "-//W3C//DTD SVG 1.1//EN" "http://www.w3.org/Graphics/SVG/1.1/DTD/svg11.dtd">
<svg xmlns="http://www.w3.org/2000/svg" version="1.1" width="177px" height="75px" style="shape-rendering:geometricPrecision; text-rendering:geometricPrecision; image-rendering:optimizeQuality; fill-rule:evenodd; clip-rule:evenodd" xmlns:xlink="http://www.w3.org/1999/xlink">
<g><path style="opacity:0.928" fill="#fefffe" d="M 5.5,24.5 C 13.84,24.3336 22.1733,24.5003 30.5,25C 31.8333,33 31.8333,41 30.5,49C 22.1733,49.4997 13.84,49.6664 5.5,49.5C 5.5,41.1667 5.5,32.8333 5.5,24.5 Z M 17.5,32.5 C 19.7247,35.2624 21.7247,38.2624 23.5,41.5C 19.8333,42.8333 16.1667,42.8333 12.5,41.5C 14.4446,38.6067 16.1113,35.6067 17.5,32.5 Z"/></g>
<g><path style="opacity:0.743" fill="#fefffe" d="M 56.5,27.5 C 58.6648,27.1159 60.3315,27.7826 61.5,29.5C 60.3315,31.2174 58.6648,31.8841 56.5,31.5C 56.5,30.1667 56.5,28.8333 56.5,27.5 Z"/></g>
<g><path style="opacity:0.76" fill="#fefffe" d="M 90.5,28.5 C 91.8333,28.5 93.1667,28.5 94.5,28.5C 94.3398,30.1992 94.5065,31.8659 95,33.5C 103.223,32.0492 105.89,35.3826 103,43.5C 102.25,44.1258 101.416,44.6258 100.5,45C 97.0644,44.6519 93.7311,44.8186 90.5,45.5C 90.5,39.8333 90.5,34.1667 90.5,28.5 Z M 95.5,36.5 C 97.9477,36.0847 99.2811,37.0847 99.5,39.5C 97.8333,43.5 96.1667,43.5 94.5,39.5C 94.685,38.4163 95.0183,37.4163 95.5,36.5 Z"/></g>
<g><path style="opacity:0.718" fill="#fefffe" d="M 105.5,28.5 C 107.167,28.5 108.833,28.5 110.5,28.5C 110.5,34.1667 110.5,39.8333 110.5,45.5C 108.833,45.5 107.167,45.5 105.5,45.5C 105.5,39.8333 105.5,34.1667 105.5,28.5 Z"/></g>
<g><path style="opacity:0.747" fill="#fefffe" d="M 143.5,28.5 C 144.833,28.5 146.167,28.5 147.5,28.5C 147.336,31.1873 147.503,33.854 148,36.5C 149.971,32.8136 152.805,31.8136 156.5,33.5C 155.352,35.1487 154.019,36.6487 152.5,38C 154.167,40.3333 155.833,42.6667 157.5,45C 153.316,46.1655 150.483,44.6655 149,40.5C 147.731,41.9047 147.231,43.5714 147.5,45.5C 146.167,45.5 144.833,45.5 143.5,45.5C 143.5,39.8333 143.5,34.1667 143.5,28.5 Z"/></g>
<g><path style="opacity:0.858" fill="#fefffe" d="M 41.5,29.5 C 45.5,29.5 49.5,29.5 53.5,29.5C 53.5,30.5 53.5,31.5 53.5,32.5C 50.8333,32.5 48.1667,32.5 45.5,32.5C 45.5,33.5 45.5,34.5 45.5,35.5C 47.8333,35.5 50.1667,35.5 52.5,35.5C 52.5,36.8333 52.5,38.1667 52.5,39.5C 50.1667,39.5 47.8333,39.5 45.5,39.5C 45.5,41.5 45.5,43.5 45.5,45.5C 44.1667,45.5 42.8333,45.5 41.5,45.5C 41.5,40.1667 41.5,34.8333 41.5,29.5 Z"/></g>
<g><path style="opacity:0.827" fill="#fefffe" d="M 56.5,32.5 C 57.8333,32.5 59.1667,32.5 60.5,32.5C 60.5,36.8333 60.5,41.1667 60.5,45.5C 59.1667,45.5 57.8333,45.5 56.5,45.5C 56.5,41.1667 56.5,36.8333 56.5,32.5 Z"/></g>
<g><path style="opacity:0.793" fill="#fefffe" d="M 64.5,32.5 C 67.1667,32.5 69.8333,32.5 72.5,32.5C 72.5,33.8333 72.5,35.1667 72.5,36.5C 71.1779,36.33 70.0113,36.6634 69,37.5C 68.5026,40.146 68.3359,42.8127 68.5,45.5C 67.1667,45.5 65.8333,45.5 64.5,45.5C 64.5,41.1667 64.5,36.8333 64.5,32.5 Z"/></g>
<g><path style="opacity:0.733" fill="#fefffe" d="M 77.5,32.5 C 84.1284,31.133 87.4617,33.7997 87.5,40.5C 83.9007,40.2619 83.5673,41.2619 86.5,43.5C 83.3259,45.9694 79.9926,46.136 76.5,44C 73.6809,39.8987 74.0142,36.0654 77.5,32.5 Z M 80.5,35.5 C 81.2891,35.7828 81.9558,36.2828 82.5,37C 81.1667,37.6667 79.8333,37.6667 78.5,37C 79.4158,36.7216 80.0825,36.2216 80.5,35.5 Z"/></g>
<g><path style="opacity:0.761" fill="#fefffe" d="M 116.5,32.5 C 125.805,31.9514 128.472,35.7848 124.5,44C 118.664,46.7489 114.664,45.0822 112.5,39C 113.226,36.3661 114.559,34.1995 116.5,32.5 Z M 117.5,36.5 C 121.138,35.7366 122.638,37.0699 122,40.5C 118.331,42.0093 116.831,40.6759 117.5,36.5 Z"/></g>
<g><path style="opacity:0.73" fill="#fefffe" d="M 131.5,32.5 C 134.93,32.1065 138.096,32.7732 141,34.5C 141.224,36.1312 140.39,37.1312 138.5,37.5C 136.099,35.9378 134.099,36.2712 132.5,38.5C 132.865,39.9019 133.699,40.9019 135,41.5C 137.349,40.0235 139.516,40.1902 141.5,42C 135.563,47.3482 131.23,46.3482 128.5,39C 128.84,36.4887 129.84,34.322 131.5,32.5 Z"/></g>
<g><path style="opacity:0.719" fill="#fefffe" d="M 160.5,32.5 C 163.722,32.1081 166.722,32.6081 169.5,34C 169.002,35.1581 168.169,35.9915 167,36.5C 165.838,35.8132 164.672,35.6466 163.5,36C 165,37.1145 166.667,37.9479 168.5,38.5C 169.847,44.9677 167.18,47.1344 160.5,45C 157.997,43.4506 157.997,41.7839 160.5,40C 157.914,37.506 157.914,35.006 160.5,32.5 Z"/></g>
</svg>
