<?xml version="1.0" encoding="UTF-8"?>
<!DOCTYPE svg PUBLIC "-//W3C//DTD SVG 1.1//EN" "http://www.w3.org/Graphics/SVG/1.1/DTD/svg11.dtd">
<svg xmlns="http://www.w3.org/2000/svg" version="1.1" width="177px" height="74px" style="shape-rendering:geometricPrecision; text-rendering:geometricPrecision; image-rendering:optimizeQuality; fill-rule:evenodd; clip-rule:evenodd" xmlns:xlink="http://www.w3.org/1999/xlink">
<g><path style="opacity:0.892" fill="#fefffe" d="M 33.5,4.5 C 52.9239,3.76421 65.0905,12.7642 70,31.5C 71.758,48.8939 64.5913,60.8939 48.5,67.5C 47.914,67.2907 47.414,66.9574 47,66.5C 46.6667,61.8333 46.3333,57.1667 46,52.5C 45.3551,51.354 44.5217,50.354 43.5,49.5C 47.6824,48.4946 51.6824,46.9946 55.5,45C 60.26,38.1913 60.4267,31.358 56,24.5C 57.4118,13.8802 54.0784,11.8802 46,18.5C 40.5304,17.1849 35.0304,17.1849 29.5,18.5C 26.7642,16.0311 23.7642,15.0311 20.5,15.5C 19.2117,18.0335 19.2117,20.5335 20.5,23C 14.8933,31.159 15.56,38.8256 22.5,46C 25.7317,47.4661 29.065,48.6327 32.5,49.5C 28.0173,56.1115 23.3506,56.1115 18.5,49.5C 18.5419,54.1281 21.0419,57.1281 26,58.5C 26.8732,58.2645 27.7065,57.9312 28.5,57.5C 31.6585,67.5227 28.9919,69.6894 20.5,64C 5.58796,51.8037 2.4213,36.9704 11,19.5C 16.5579,11.4179 24.0579,6.4179 33.5,4.5 Z"/></g>
<g><path style="opacity:0.832" fill="#fefffe" d="M 84.5,22.5 C 87.5176,22.7038 90.5176,23.0371 93.5,23.5C 93.7394,25.4672 93.4061,27.3005 92.5,29C 82.664,27.7002 79.4973,31.8668 83,41.5C 84.4443,43.1554 86.2776,43.822 88.5,43.5C 88.5,42.1667 88.5,40.8333 88.5,39.5C 87.5,39.5 86.5,39.5 85.5,39.5C 85.5,37.5 85.5,35.5 85.5,33.5C 88.5,33.5 91.5,33.5 94.5,33.5C 94.8025,38.43 94.4692,43.2633 93.5,48C 77.7529,50.5717 72.2529,44.0717 77,28.5C 78.7074,25.4096 81.2074,23.4096 84.5,22.5 Z"/></g>
<g><path style="opacity:0.783" fill="#fefffe" d="M 117.5,23.5 C 119.467,23.2606 121.301,23.5939 123,24.5C 123.497,27.146 123.664,29.8127 123.5,32.5C 125.5,32.5 127.5,32.5 129.5,32.5C 129.5,29.5 129.5,26.5 129.5,23.5C 131.467,23.2606 133.301,23.5939 135,24.5C 135.5,32.4931 135.666,40.4931 135.5,48.5C 133.5,48.5 131.5,48.5 129.5,48.5C 129.5,45.1667 129.5,41.8333 129.5,38.5C 127.5,38.5 125.5,38.5 123.5,38.5C 123.5,41.8333 123.5,45.1667 123.5,48.5C 121.167,48.5 118.833,48.5 116.5,48.5C 116.198,40.0817 116.531,31.7483 117.5,23.5 Z"/></g>
<g><path style="opacity:0.815" fill="#fefffe" d="M 153.5,23.5 C 155.5,23.5 157.5,23.5 159.5,23.5C 159.5,26.1667 159.5,28.8333 159.5,31.5C 166.715,29.5353 170.382,32.3687 170.5,40C 170.922,45.2834 168.589,48.45 163.5,49.5C 160.217,48.673 156.884,48.3396 153.5,48.5C 153.5,40.1667 153.5,31.8333 153.5,23.5 Z M 159.5,36.5 C 164.068,36.0826 165.568,38.0826 164,42.5C 163.072,44.3348 161.906,44.6682 160.5,43.5C 159.526,41.2573 159.192,38.924 159.5,36.5 Z"/></g>
<g><path style="opacity:0.81" fill="#fefffe" d="M 97.5,24.5 C 100.59,23.83 102.257,24.9967 102.5,28C 102.245,29.3261 101.578,30.3261 100.5,31C 102.425,36.5358 103.092,42.3691 102.5,48.5C 100.5,48.5 98.5,48.5 96.5,48.5C 96.5,42.8333 96.5,37.1667 96.5,31.5C 100.243,31.5408 100.41,30.8741 97,29.5C 96.3603,27.735 96.5269,26.0683 97.5,24.5 Z"/></g>
<g><path style="opacity:0.863" fill="#fefffe" d="M 106.5,26.5 C 108.167,26.5 109.833,26.5 111.5,26.5C 111.5,28.1667 111.5,29.8333 111.5,31.5C 112.833,31.5 114.167,31.5 115.5,31.5C 115.5,33.1667 115.5,34.8333 115.5,36.5C 114.167,36.5 112.833,36.5 111.5,36.5C 111.338,38.5273 111.505,40.5273 112,42.5C 113.011,43.3366 114.178,43.67 115.5,43.5C 115.442,49.3643 112.776,50.8643 107.5,48C 106.54,44.27 106.207,40.4367 106.5,36.5C 105.5,36.5 104.5,36.5 103.5,36.5C 104.771,33.3136 105.771,29.9803 106.5,26.5 Z"/></g>
<g><path style="opacity:0.822" fill="#fefffe" d="M 136.5,31.5 C 138.5,31.5 140.5,31.5 142.5,31.5C 142.069,36.032 142.569,40.3654 144,44.5C 144.414,44.0426 144.914,43.7093 145.5,43.5C 146.491,39.5546 146.824,35.5546 146.5,31.5C 148.5,31.5 150.5,31.5 152.5,31.5C 152.5,37.1667 152.5,42.8333 152.5,48.5C 149.116,48.3396 145.783,48.673 142.5,49.5C 140.303,49.1519 138.47,48.1519 137,46.5C 136.501,41.5111 136.334,36.5111 136.5,31.5 Z"/></g>
</svg>
