<?xml version="1.0" encoding="UTF-8"?>
<!DOCTYPE svg PUBLIC "-//W3C//DTD SVG 1.1//EN" "http://www.w3.org/Graphics/SVG/1.1/DTD/svg11.dtd">
<svg xmlns="http://www.w3.org/2000/svg" version="1.1" width="177px" height="75px" style="shape-rendering:geometricPrecision; text-rendering:geometricPrecision; image-rendering:optimizeQuality; fill-rule:evenodd; clip-rule:evenodd" xmlns:xlink="http://www.w3.org/1999/xlink">
<g><path style="opacity:0.912" fill="#fefffe" d="M 9.5,17.5 C 11.1789,17.8923 12.8455,18.3923 14.5,19C 20,23.1667 25.5,27.3333 31,31.5C 37.0817,26.2518 43.5817,21.5851 50.5,17.5C 52.0589,18.0736 53.5589,18.7402 55,19.5C 56.6219,30.7358 56.9552,42.0692 56,53.5C 55.6258,54.4162 55.1258,55.2496 54.5,56C 50.8484,56.4986 47.1817,56.6653 43.5,56.5C 43.6662,50.4908 43.4995,44.4908 43,38.5C 38.7451,41.3775 34.5784,44.3775 30.5,47.5C 26.5,44.5 22.5,41.5 18.5,38.5C 17.5041,44.4632 17.1707,50.4632 17.5,56.5C 13.5633,56.7935 9.72998,56.4601 6,55.5C 5.33333,43.8333 5.33333,32.1667 6,20.5C 7.14508,19.3636 8.31174,18.3636 9.5,17.5 Z"/></g>
<g><path style="opacity:0.76" fill="#fefffe" d="M 83.5,21.5 C 89.4827,20.619 94.816,21.9524 99.5,25.5C 97.5353,29.2151 95.202,29.3817 92.5,26C 83.1724,24.9952 78.6724,29.1619 79,38.5C 83.3899,47.2442 89.3899,48.5776 97,42.5C 97.5,41.5 98,40.5 98.5,39.5C 95.2317,38.513 91.8984,38.1796 88.5,38.5C 88.5,37.1667 88.5,35.8333 88.5,34.5C 93.1667,34.5 97.8333,34.5 102.5,34.5C 103.255,44.246 98.7553,49.5793 89,50.5C 75.7631,47.6937 71.7631,40.027 77,27.5C 79.0627,25.2659 81.2294,23.2659 83.5,21.5 Z"/></g>
<g><path style="opacity:0.645" fill="#fefffe" d="M 157.5,21.5 C 161.909,20.899 163.242,22.5657 161.5,26.5C 157.322,27.3137 155.989,25.647 157.5,21.5 Z"/></g>
<g><path style="opacity:0.817" fill="#fefffe" d="M 165.5,21.5 C 166.833,21.5 168.167,21.5 169.5,21.5C 169.5,30.8333 169.5,40.1667 169.5,49.5C 168.167,49.5 166.833,49.5 165.5,49.5C 165.5,40.1667 165.5,30.8333 165.5,21.5 Z"/></g>
<g><path style="opacity:0.8" fill="#fefffe" d="M 113.5,29.5 C 116.588,29.3773 119.255,30.3773 121.5,32.5C 126.045,28.3465 130.211,28.6798 134,33.5C 134.499,38.8229 134.666,44.1563 134.5,49.5C 133.167,49.5 131.833,49.5 130.5,49.5C 130.666,44.8215 130.499,40.1548 130,35.5C 127.321,32.8285 124.988,33.1618 123,36.5C 122.501,40.8206 122.334,45.1539 122.5,49.5C 121.167,49.5 119.833,49.5 118.5,49.5C 118.666,45.1539 118.499,40.8206 118,36.5C 116.272,32.824 113.939,32.4906 111,35.5C 109.691,40.0658 109.191,44.7325 109.5,49.5C 108.167,49.5 106.833,49.5 105.5,49.5C 105.5,43.1667 105.5,36.8333 105.5,30.5C 107.451,30.2267 108.951,30.8934 110,32.5C 111.145,31.3636 112.312,30.3636 113.5,29.5 Z"/></g>
<g><path style="opacity:0.754" fill="#fefffe" d="M 143.5,29.5 C 147.31,29.379 150.477,30.7124 153,33.5C 154.339,38.7364 154.839,44.0698 154.5,49.5C 152.549,49.7733 151.049,49.1066 150,47.5C 146.075,51.4101 142.075,51.4101 138,47.5C 136.18,44.5964 136.346,41.763 138.5,39C 142.099,37.9861 145.765,37.1527 149.5,36.5C 148.73,34.7282 147.397,33.7282 145.5,33.5C 143.833,34.1667 142.167,34.8333 140.5,35.5C 137.815,35.2917 137.149,34.125 138.5,32C 140.315,31.2432 141.981,30.4098 143.5,29.5 Z M 143.5,40.5 C 145.199,40.3398 146.866,40.5065 148.5,41C 149.517,42.0495 149.684,43.2161 149,44.5C 145.763,47.4949 143.263,47.1616 141.5,43.5C 141.942,42.2613 142.609,41.2613 143.5,40.5 Z"/></g>
<g><path style="opacity:0.79" fill="#fefffe" d="M 157.5,30.5 C 158.833,30.5 160.167,30.5 161.5,30.5C 161.5,36.8333 161.5,43.1667 161.5,49.5C 160.167,49.5 158.833,49.5 157.5,49.5C 157.5,43.1667 157.5,36.8333 157.5,30.5 Z"/></g>
</svg>
