<?xml version="1.0" encoding="UTF-8"?>
<!DOCTYPE svg PUBLIC "-//W3C//DTD SVG 1.1//EN" "http://www.w3.org/Graphics/SVG/1.1/DTD/svg11.dtd">
<svg xmlns="http://www.w3.org/2000/svg" version="1.1" width="177px" height="74px" style="shape-rendering:geometricPrecision; text-rendering:geometricPrecision; image-rendering:optimizeQuality; fill-rule:evenodd; clip-rule:evenodd" xmlns:xlink="http://www.w3.org/1999/xlink">
<g><path style="opacity:0.858" fill="#fefffe" d="M 23.5,8.5 C 30.7909,7.70911 37.1243,9.70911 42.5,14.5C 41.1851,16.3159 39.6851,17.9825 38,19.5C 32.7198,15.2449 26.8864,14.4115 20.5,17C 12.6687,23.4878 11.502,30.9878 17,39.5C 24.3333,46.1667 31.6667,46.1667 39,39.5C 40.128,37.6547 40.628,35.6547 40.5,33.5C 36.1667,33.5 31.8333,33.5 27.5,33.5C 27.5,31.5 27.5,29.5 27.5,27.5C 34.1667,27.5 40.8333,27.5 47.5,27.5C 47.7072,45.121 39.0405,52.621 21.5,50C 7.84183,43.8383 3.67516,33.6716 9,19.5C 12.5622,13.9885 17.3955,10.3218 23.5,8.5 Z"/></g>
<g><path style="opacity:0.807" fill="#fefffe" d="M 136.5,9.5 C 138.792,9.24358 140.959,9.57692 143,10.5C 143.5,23.8292 143.667,37.1625 143.5,50.5C 141.167,50.5 138.833,50.5 136.5,50.5C 136.5,36.8333 136.5,23.1667 136.5,9.5 Z"/></g>
<g><path style="opacity:0.839" fill="#fefffe" d="M 57.5,23.5 C 72.4307,22.405 78.264,29.0716 75,43.5C 70.874,49.9702 65.0407,52.1369 57.5,50C 47.946,44.511 46.1127,37.011 52,27.5C 54.0153,26.3034 55.8487,24.9701 57.5,23.5 Z M 60.5,29.5 C 67.5786,29.7559 70.412,33.4226 69,40.5C 64.6667,45.8333 60.3333,45.8333 56,40.5C 54.7758,35.626 56.2758,31.9593 60.5,29.5 Z"/></g>
<g><path style="opacity:0.847" fill="#fefffe" d="M 87.5,23.5 C 103.256,23.3403 108.422,30.6737 103,45.5C 96.841,51.101 90.0077,51.9343 82.5,48C 74.9425,37.8596 76.6091,29.693 87.5,23.5 Z M 89.5,29.5 C 96.6319,29.8021 99.4652,33.4688 98,40.5C 95.8387,44.1241 92.672,45.2907 88.5,44C 83.0028,38.6829 83.3361,33.8495 89.5,29.5 Z"/></g>
<g><path style="opacity:0.854" fill="#fefffe" d="M 116.5,23.5 C 122.161,23.9068 127.828,24.2401 133.5,24.5C 133.929,35.2449 133.429,45.9115 132,56.5C 129.391,60.722 125.558,62.722 120.5,62.5C 114.677,62.7624 110.677,60.2624 108.5,55C 109.337,53.413 110.67,52.5796 112.5,52.5C 114.951,54.29 117.618,55.6234 120.5,56.5C 125.385,56.2992 127.051,53.9659 125.5,49.5C 111.521,51.6858 105.687,45.6858 108,31.5C 110.098,27.8972 112.932,25.2305 116.5,23.5 Z M 118.5,29.5 C 125.091,29.5935 127.924,32.9269 127,39.5C 125.336,44.0383 122.169,45.5383 117.5,44C 112.195,38.7369 112.528,33.9036 118.5,29.5 Z"/></g>
<g><path style="opacity:0.84" fill="#fefffe" d="M 153.5,23.5 C 162.057,22.0115 167.724,25.3449 170.5,33.5C 165.174,36.6632 159.507,38.9965 153.5,40.5C 153.36,42.1238 154.027,43.2904 155.5,44C 159.295,44.9792 162.628,44.1458 165.5,41.5C 169.74,42.7149 170.407,44.8816 167.5,48C 151.495,53.9198 144.329,48.4198 146,31.5C 147.353,27.6499 149.853,24.9832 153.5,23.5 Z M 155.5,29.5 C 157.977,29.0508 159.977,29.7175 161.5,31.5C 158.32,33.79 154.987,34.79 151.5,34.5C 152.857,32.8144 154.19,31.1477 155.5,29.5 Z"/></g>
</svg>
