<?xml version="1.0" encoding="UTF-8"?>
<!DOCTYPE svg PUBLIC "-//W3C//DTD SVG 1.1//EN" "http://www.w3.org/Graphics/SVG/1.1/DTD/svg11.dtd">
<svg xmlns="http://www.w3.org/2000/svg" version="1.1" width="177px" height="75px" style="shape-rendering:geometricPrecision; text-rendering:geometricPrecision; image-rendering:optimizeQuality; fill-rule:evenodd; clip-rule:evenodd" xmlns:xlink="http://www.w3.org/1999/xlink">
<g><path style="opacity:0.925" fill="#fefffe" d="M 43.5,8.5 C 49.0537,7.1021 52.5537,9.1021 54,14.5C 54.6667,28.8333 54.6667,43.1667 54,57.5C 53.6525,61.8476 51.3191,64.1809 47,64.5C 44.4628,63.9031 42.4628,62.5697 41,60.5C 40.3333,44.1667 40.3333,27.8333 41,11.5C 42.045,10.6266 42.8783,9.62656 43.5,8.5 Z"/></g>
<g><path style="opacity:0.755" fill="#fefffe" d="M 71.5,8.5 C 74.5184,8.33537 77.5184,8.50204 80.5,9C 84.3008,10.4494 84.4675,12.2828 81,14.5C 76.4311,11.4392 72.4311,12.1059 69,16.5C 67.8333,24.6667 71.3333,28.1667 79.5,27C 80.6872,25.9805 81.6872,24.8139 82.5,23.5C 80.2573,22.5258 77.924,22.1924 75.5,22.5C 75.5,21.1667 75.5,19.8333 75.5,18.5C 79.1667,18.5 82.8333,18.5 86.5,18.5C 86.3793,30.1801 80.7126,34.0134 69.5,30C 64.355,25.4022 63.1883,19.9022 66,13.5C 67.7297,11.5981 69.563,9.93142 71.5,8.5 Z"/></g>
<g><path style="opacity:0.731" fill="#fefffe" d="M 134.5,9.5 C 135.833,9.5 137.167,9.5 138.5,9.5C 138.334,13.8461 138.501,18.1794 139,22.5C 140.458,16.9411 143.958,15.1077 149.5,17C 152.21,18.4598 152.876,20.4598 151.5,23C 142.383,26.0446 142.383,27.3779 151.5,27C 152.833,28 152.833,29 151.5,30C 145.6,32.948 141.433,31.448 139,25.5C 138.505,27.4727 138.338,29.4727 138.5,31.5C 137.167,31.5 135.833,31.5 134.5,31.5C 134.5,24.1667 134.5,16.8333 134.5,9.5 Z M 145.5,19.5 C 148.034,20.8376 147.7,21.8376 144.5,22.5C 144.167,22.1667 143.833,21.8333 143.5,21.5C 144.243,20.8182 144.909,20.1515 145.5,19.5 Z"/></g>
<g><path style="opacity:0.738" fill="#fefffe" d="M 91.5,16.5 C 97.156,15.2428 100.989,17.2428 103,22.5C 104.98,17.0945 108.814,15.2611 114.5,17C 116.019,18.3513 117.352,19.8513 118.5,21.5C 119.648,19.8513 120.981,18.3513 122.5,17C 126.307,17.106 129.974,16.9393 133.5,16.5C 133.666,22.1764 133.499,27.8431 133,33.5C 128.675,39.839 124.175,40.0056 119.5,34C 121.134,30.7102 122.801,30.7102 124.5,34C 127.522,34.6363 129.022,33.4697 129,30.5C 124.458,32.1536 120.958,30.8202 118.5,26.5C 115.215,31.4932 110.881,32.6599 105.5,30C 104.107,28.8289 103.273,27.3289 103,25.5C 98.827,32.6201 93.827,33.2868 88,27.5C 86.6631,22.8721 87.8298,19.2054 91.5,16.5 Z M 94.5,19.5 C 98.3958,20.7805 99.3958,23.2805 97.5,27C 92.3333,28.5 90.5,26.6667 92,21.5C 92.9947,20.9341 93.828,20.2674 94.5,19.5 Z M 110.5,19.5 C 115.692,22.3451 115.692,25.0118 110.5,27.5C 105.483,25.0897 105.483,22.423 110.5,19.5 Z M 125.5,19.5 C 129.396,20.7805 130.396,23.2805 128.5,27C 121.934,26.8051 120.934,24.3051 125.5,19.5 Z"/></g>
<g><path style="opacity:0.911" fill="#fefffe" d="M 26.5,29.5 C 30.287,28.8144 33.4537,29.8144 36,32.5C 36.6667,41.8333 36.6667,51.1667 36,60.5C 30.6328,66.2394 26.2995,65.5727 23,58.5C 22.3333,50.5 22.3333,42.5 23,34.5C 23.9973,32.6769 25.1639,31.0103 26.5,29.5 Z"/></g>
<g><path style="opacity:0.59" fill="#fefffe" d="M 140.5,38.5 C 143.956,39.5362 144.29,41.2029 141.5,43.5C 139.296,42.218 138.962,40.5514 140.5,38.5 Z"/></g>
<g><path style="opacity:0.698" fill="#fefffe" d="M 70.5,39.5 C 72.1667,39.5 73.8333,39.5 75.5,39.5C 77.3591,45.9101 79.5258,52.2434 82,58.5C 82.499,54.1794 82.6657,49.8461 82.5,45.5C 83.8221,45.33 84.9887,45.6634 86,46.5C 89.2709,43.8028 92.2709,44.1361 95,47.5C 95.4988,51.4862 95.6655,55.4862 95.5,59.5C 94.5,59.5 93.5,59.5 92.5,59.5C 92.6646,56.4816 92.498,53.4816 92,50.5C 90.5409,47.5575 88.8743,47.2241 87,49.5C 86.5017,52.8168 86.335,56.1501 86.5,59.5C 83.7531,59.8134 81.0865,59.48 78.5,58.5C 77.7542,57.2638 77.4208,55.9305 77.5,54.5C 74.5,54.5 71.5,54.5 68.5,54.5C 68.8098,58.3315 67.1431,59.8315 63.5,59C 66.3315,52.6716 68.6649,46.1716 70.5,39.5 Z M 72.5,43.5 C 73.5783,45.5394 74.5783,47.706 75.5,50C 73.8333,50.6667 72.1667,50.6667 70.5,50C 71.6687,47.9935 72.3354,45.8268 72.5,43.5 Z"/></g>
<g><path style="opacity:0.812" fill="#fefffe" d="M 111.5,39.5 C 112.5,39.5 113.5,39.5 114.5,39.5C 114.5,46.1667 114.5,52.8333 114.5,59.5C 113.5,59.5 112.5,59.5 111.5,59.5C 111.5,52.8333 111.5,46.1667 111.5,39.5 Z"/></g>
<g><path style="opacity:0.671" fill="#fefffe" d="M 131.5,41.5 C 132.833,41.5 134.167,41.5 135.5,41.5C 135.5,42.8333 135.5,44.1667 135.5,45.5C 136.5,45.5 137.5,45.5 138.5,45.5C 138.5,46.5 138.5,47.5 138.5,48.5C 137.5,48.5 136.5,48.5 135.5,48.5C 135.5,51.1667 135.5,53.8333 135.5,56.5C 136.5,56.5 137.5,56.5 138.5,56.5C 138.5,57.5 138.5,58.5 138.5,59.5C 135.956,59.8957 133.789,59.229 132,57.5C 131.969,53.5144 130.969,49.8478 129,46.5C 126,52.671 123.5,59.0044 121.5,65.5C 120.022,65.762 118.689,65.4287 117.5,64.5C 118.637,62.3932 119.637,60.2265 120.5,58C 118.696,54.2251 117.029,50.3917 115.5,46.5C 116.689,45.5713 118.022,45.238 119.5,45.5C 120.657,55.4784 122.657,55.8117 125.5,46.5C 127.396,45.5344 129.396,45.2011 131.5,45.5C 131.5,44.1667 131.5,42.8333 131.5,41.5 Z"/></g>
<g><path style="opacity:0.677" fill="#fefffe" d="M 100.5,44.5 C 103.199,44.4661 105.699,45.1328 108,46.5C 109.367,50.6996 109.867,55.0329 109.5,59.5C 105.737,59.4679 101.904,59.1345 98,58.5C 96.6986,56.6354 96.3653,54.6354 97,52.5C 99.7237,50.3169 102.557,49.3169 105.5,49.5C 104.758,48.7132 103.925,48.0465 103,47.5C 100.952,49.8358 99.1183,49.8358 97.5,47.5C 98.3398,46.265 99.3398,45.265 100.5,44.5 Z M 101.5,52.5 C 104.694,52.1756 105.694,53.3422 104.5,56C 103.207,56.49 101.873,56.6567 100.5,56.5C 100.433,55.0413 100.766,53.7079 101.5,52.5 Z"/></g>
<g><path style="opacity:0.683" fill="#fefffe" d="M 149.5,44.5 C 152.99,44.245 155.657,45.5783 157.5,48.5C 157.167,49.5 156.5,50.1667 155.5,50.5C 150.201,46.4 147.701,47.7334 148,54.5C 148.804,55.8045 149.971,56.4712 151.5,56.5C 153.325,55.3489 155.325,54.6822 157.5,54.5C 157.703,56.3904 157.037,57.8904 155.5,59C 146.667,60.8333 143.167,57.3333 145,48.5C 146.25,46.8065 147.75,45.4732 149.5,44.5 Z"/></g>
<g><path style="opacity:0.664" fill="#fefffe" d="M 162.5,44.5 C 166.577,44.0171 168.91,45.6837 169.5,49.5C 167.418,49.528 165.584,48.8613 164,47.5C 163.308,48.0253 162.808,48.6919 162.5,49.5C 166.318,50.065 168.984,52.065 170.5,55.5C 168.216,59.252 164.882,60.4186 160.5,59C 158.963,57.8904 158.297,56.3904 158.5,54.5C 160.675,54.6822 162.675,55.3489 164.5,56.5C 165.167,56.1667 165.833,55.8333 166.5,55.5C 164.063,54.0744 161.563,52.741 159,51.5C 158.176,48.1604 159.343,45.827 162.5,44.5 Z"/></g>
<g><path style="opacity:0.594" fill="#fefffe" d="M 139.5,45.5 C 140.833,45.5 142.167,45.5 143.5,45.5C 143.5,50.1667 143.5,54.8333 143.5,59.5C 142.167,59.5 140.833,59.5 139.5,59.5C 139.5,54.8333 139.5,50.1667 139.5,45.5 Z"/></g>
<g><path style="opacity:0.86" fill="#fefffe" d="M 9.5,50.5 C 17.3296,49.4949 20.4963,52.8283 19,60.5C 14.1624,66.0359 9.82911,65.7026 6,59.5C 4.98042,55.5532 6.14709,52.5532 9.5,50.5 Z"/></g>
</svg>
