<?xml version="1.0" encoding="UTF-8"?>
<!DOCTYPE svg PUBLIC "-//W3C//DTD SVG 1.1//EN" "http://www.w3.org/Graphics/SVG/1.1/DTD/svg11.dtd">
<svg xmlns="http://www.w3.org/2000/svg" version="1.1" width="177px" height="74px" style="shape-rendering:geometricPrecision; text-rendering:geometricPrecision; image-rendering:optimizeQuality; fill-rule:evenodd; clip-rule:evenodd" xmlns:xlink="http://www.w3.org/1999/xlink">
<g><path style="opacity:0.861" fill="#fefffe" d="M 50.5,16.5 C 56.9467,15.4201 62.6134,16.9201 67.5,21C 65.6667,22.8333 63.8333,24.6667 62,26.5C 56.8084,22.4537 52.1417,23.1204 48,28.5C 45.1859,36.3781 47.8526,41.3781 56,43.5C 59.7961,43.0264 62.6295,41.1931 64.5,38C 61.5184,37.502 58.5184,37.3354 55.5,37.5C 55.5,34.8333 55.5,32.1667 55.5,29.5C 61.0934,29.1934 66.5934,29.5268 72,30.5C 72.1355,46.6924 64.3022,52.859 48.5,49C 39.1209,42.4619 36.9543,33.9619 42,23.5C 44.4412,20.5464 47.2745,18.2131 50.5,16.5 Z"/></g>
<g><path style="opacity:0.792" fill="#fefffe" d="M 100.5,29.5 C 97.5902,35.7843 92.5902,38.1176 85.5,36.5C 85.5,40.5 85.5,44.5 85.5,48.5C 83.8333,48.5 82.1667,48.5 80.5,48.5C 80.5,38.5 80.5,28.5 80.5,18.5C 85.9586,18.1033 91.2919,18.6033 96.5,20C 99.2876,22.5232 100.621,25.6899 100.5,29.5 Z M 85.5,22.5 C 90.2951,21.5635 93.6284,23.2302 95.5,27.5C 95.363,29.1073 94.6964,30.4406 93.5,31.5C 90.9159,32.3928 88.2492,32.7261 85.5,32.5C 85.5,29.1667 85.5,25.8333 85.5,22.5 Z"/></g>
<g><path style="opacity:0.783" fill="#fefffe" d="M 100.5,29.5 C 106.582,26.2561 112.082,26.9228 117,31.5C 117.499,37.1569 117.666,42.8236 117.5,48.5C 115.549,48.7733 114.049,48.1066 113,46.5C 108.375,50.6459 104.041,50.3125 100,45.5C 98.8175,41.7261 99.6508,38.5594 102.5,36C 106.142,34.4421 109.809,34.1088 113.5,35C 112.863,32.6941 111.363,31.5275 109,31.5C 106.532,32.5032 104.032,33.0032 101.5,33C 100.663,31.9887 100.33,30.8221 100.5,29.5 Z M 106.5,38.5 C 115.01,38.5792 115.51,40.9125 108,45.5C 106.989,44.6634 105.822,44.33 104.5,44.5C 104.253,42.1417 104.919,40.1417 106.5,38.5 Z"/></g>
<g><path style="opacity:0.768" fill="#fefffe" d="M 117.5,27.5 C 119.288,27.2148 120.955,27.5481 122.5,28.5C 124.05,32.6613 125.884,36.6613 128,40.5C 129.667,36.5 131.333,32.5 133,28.5C 134.356,27.6198 135.856,27.2865 137.5,27.5C 134.166,37.3294 130.333,46.996 126,56.5C 124.644,57.3802 123.144,57.7135 121.5,57.5C 122.337,53.8237 123.67,50.3237 125.5,47C 122.538,40.6138 119.872,34.1138 117.5,27.5 Z"/></g>
</svg>
