<?xml version="1.0" encoding="UTF-8"?>
<!DOCTYPE svg PUBLIC "-//W3C//DTD SVG 1.1//EN" "http://www.w3.org/Graphics/SVG/1.1/DTD/svg11.dtd">
<svg xmlns="http://www.w3.org/2000/svg" version="1.1" width="177px" height="75px" style="shape-rendering:geometricPrecision; text-rendering:geometricPrecision; image-rendering:optimizeQuality; fill-rule:evenodd; clip-rule:evenodd" xmlns:xlink="http://www.w3.org/1999/xlink">
<g><path style="opacity:0.73" fill="#fefffe" d="M 5.5,8.5 C 13.8333,8.5 22.1667,8.5 30.5,8.5C 30.7135,10.1439 30.3802,11.6439 29.5,13C 22.8417,13.4996 16.175,13.6663 9.5,13.5C 9.5,17.5 9.5,21.5 9.5,25.5C 8.16667,25.5 6.83333,25.5 5.5,25.5C 5.5,19.8333 5.5,14.1667 5.5,8.5 Z"/></g>
<g><path style="opacity:0.679" fill="#fefffe" d="M 145.5,8.5 C 153.833,8.5 162.167,8.5 170.5,8.5C 170.5,14.1667 170.5,19.8333 170.5,25.5C 168.833,25.5 167.167,25.5 165.5,25.5C 165.5,21.5 165.5,17.5 165.5,13.5C 158.833,13.5 152.167,13.5 145.5,13.5C 145.5,11.8333 145.5,10.1667 145.5,8.5 Z"/></g>
<g><path style="opacity:0.818" fill="#fefffe" d="M 29.5,24.5 C 30.8333,24.5 32.1667,24.5 33.5,24.5C 33.5,31.5 33.5,38.5 33.5,45.5C 37.5,45.5 41.5,45.5 45.5,45.5C 45.5,46.8333 45.5,48.1667 45.5,49.5C 40.1667,49.5 34.8333,49.5 29.5,49.5C 29.5,41.1667 29.5,32.8333 29.5,24.5 Z"/></g>
<g><path style="opacity:0.811" fill="#fefffe" d="M 49.5,24.5 C 54.5,24.5 59.5,24.5 64.5,24.5C 64.5,25.8333 64.5,27.1667 64.5,28.5C 60.8333,28.5 57.1667,28.5 53.5,28.5C 53.5,30.5 53.5,32.5 53.5,34.5C 56.8333,34.5 60.1667,34.5 63.5,34.5C 63.5,35.8333 63.5,37.1667 63.5,38.5C 60.1667,38.5 56.8333,38.5 53.5,38.5C 53.5,40.8333 53.5,43.1667 53.5,45.5C 57.5,45.5 61.5,45.5 65.5,45.5C 65.5,46.8333 65.5,48.1667 65.5,49.5C 60.1667,49.5 54.8333,49.5 49.5,49.5C 49.5,41.1667 49.5,32.8333 49.5,24.5 Z"/></g>
<g><path style="opacity:0.738" fill="#fefffe" d="M 68.5,24.5 C 83.7398,22.2981 89.2398,28.6314 85,43.5C 82.7377,47.9313 79.071,49.9313 74,49.5C 72.2358,49.4555 70.5691,49.1222 69,48.5C 68.5003,40.5069 68.3336,32.5069 68.5,24.5 Z M 73.5,28.5 C 79.8269,27.4936 82.4936,30.1603 81.5,36.5C 82.6707,42.9384 80.004,45.9384 73.5,45.5C 73.5,39.8333 73.5,34.1667 73.5,28.5 Z"/></g>
<g><path style="opacity:0.746" fill="#fefffe" d="M 93.5,24.5 C 100.958,22.4291 105.291,25.0957 106.5,32.5C 104.833,32.5 103.167,32.5 101.5,32.5C 101.67,31.1779 101.337,30.0113 100.5,29C 98.2305,28.2419 96.0639,28.4086 94,29.5C 93.3333,34.1667 93.3333,38.8333 94,43.5C 99.1405,46.9759 101.974,45.6426 102.5,39.5C 100.5,39.5 98.5,39.5 96.5,39.5C 96.5,38.1667 96.5,36.8333 96.5,35.5C 99.8333,35.5 103.167,35.5 106.5,35.5C 106.5,40.1667 106.5,44.8333 106.5,49.5C 104.549,49.7733 103.049,49.1066 102,47.5C 95.3199,50.9973 90.9865,48.9973 89,41.5C 87.5643,34.9855 89.0643,29.3188 93.5,24.5 Z"/></g>
<g><path style="opacity:0.804" fill="#fefffe" d="M 110.5,24.5 C 115.5,24.5 120.5,24.5 125.5,24.5C 125.5,25.8333 125.5,27.1667 125.5,28.5C 121.833,28.5 118.167,28.5 114.5,28.5C 114.5,30.5 114.5,32.5 114.5,34.5C 117.833,34.5 121.167,34.5 124.5,34.5C 124.5,35.8333 124.5,37.1667 124.5,38.5C 121.167,38.5 117.833,38.5 114.5,38.5C 114.5,40.8333 114.5,43.1667 114.5,45.5C 118.5,45.5 122.5,45.5 126.5,45.5C 126.5,46.8333 126.5,48.1667 126.5,49.5C 121.167,49.5 115.833,49.5 110.5,49.5C 110.5,41.1667 110.5,32.8333 110.5,24.5 Z"/></g>
<g><path style="opacity:0.798" fill="#fefffe" d="M 130.5,24.5 C 134.514,24.3345 138.514,24.5012 142.5,25C 148.207,28.3342 148.874,32.5009 144.5,37.5C 146.344,41.2174 147.011,45.2174 146.5,49.5C 145.167,49.5 143.833,49.5 142.5,49.5C 144.499,42.1802 141.833,38.8469 134.5,39.5C 134.5,42.8333 134.5,46.1667 134.5,49.5C 133.167,49.5 131.833,49.5 130.5,49.5C 130.5,41.1667 130.5,32.8333 130.5,24.5 Z M 134.5,28.5 C 136.857,28.3367 139.19,28.5034 141.5,29C 142.833,31 142.833,33 141.5,35C 139.19,35.4966 136.857,35.6633 134.5,35.5C 134.5,33.1667 134.5,30.8333 134.5,28.5 Z"/></g>
<g><path style="opacity:0.848" fill="#fefffe" d="M 5.5,48.5 C 6.83333,48.5 8.16667,48.5 9.5,48.5C 9.5,52.5 9.5,56.5 9.5,60.5C 16.5,60.5 23.5,60.5 30.5,60.5C 30.5,61.8333 30.5,63.1667 30.5,64.5C 22.1667,64.5 13.8333,64.5 5.5,64.5C 5.5,59.1667 5.5,53.8333 5.5,48.5 Z"/></g>
<g><path style="opacity:0.785" fill="#fefffe" d="M 165.5,48.5 C 167.167,48.5 168.833,48.5 170.5,48.5C 170.5,53.8333 170.5,59.1667 170.5,64.5C 162.167,64.5 153.833,64.5 145.5,64.5C 145.5,63.1667 145.5,61.8333 145.5,60.5C 152.167,60.5 158.833,60.5 165.5,60.5C 165.5,56.5 165.5,52.5 165.5,48.5 Z"/></g>
</svg>
