<?xml version="1.0" encoding="UTF-8"?>
<!DOCTYPE svg PUBLIC "-//W3C//DTD SVG 1.1//EN" "http://www.w3.org/Graphics/SVG/1.1/DTD/svg11.dtd">
<svg xmlns="http://www.w3.org/2000/svg" version="1.1" width="177px" height="74px" style="shape-rendering:geometricPrecision; text-rendering:geometricPrecision; image-rendering:optimizeQuality; fill-rule:evenodd; clip-rule:evenodd" xmlns:xlink="http://www.w3.org/1999/xlink">
<g><path style="opacity:0.872" fill="#fefffe" d="M 69.5,15.5 C 76.381,14.5924 82.7143,15.9258 88.5,19.5C 99.0747,13.4226 108.908,14.4226 118,22.5C 123.301,30.7411 123.801,39.2411 119.5,48C 123.185,48.9145 122.852,49.5811 118.5,50C 109.617,58.9433 99.6166,60.4433 88.5,54.5C 73.7741,61.6553 62.6075,57.9886 55,43.5C 52.2502,29.9933 57.0835,20.6599 69.5,15.5 Z M 96.5,18.5 C 113.137,17.9696 120.637,25.9696 119,42.5C 113.33,53.9165 104.497,57.4165 92.5,53C 101.339,42.4589 101.672,31.6256 93.5,20.5C 94.6016,19.8243 95.6016,19.1577 96.5,18.5 Z M 87.5,21.5 C 90.4278,22.5914 92.5945,24.5914 94,27.5C 97.8456,37.1073 96.0123,45.4406 88.5,52.5C 78.4078,42.4708 78.0744,32.1375 87.5,21.5 Z"/></g>
</svg>
