<?xml version="1.0" encoding="UTF-8"?>
<!DOCTYPE svg PUBLIC "-//W3C//DTD SVG 1.1//EN" "http://www.w3.org/Graphics/SVG/1.1/DTD/svg11.dtd">
<svg xmlns="http://www.w3.org/2000/svg" version="1.1" width="177px" height="75px" style="shape-rendering:geometricPrecision; text-rendering:geometricPrecision; image-rendering:optimizeQuality; fill-rule:evenodd; clip-rule:evenodd" xmlns:xlink="http://www.w3.org/1999/xlink">
<g><path style="opacity:0.903" fill="#fefffe" d="M 5.5,18.5 C 11.5,18.5 17.5,18.5 23.5,18.5C 23.5,24.1667 23.5,29.8333 23.5,35.5C 17.5,35.5 11.5,35.5 5.5,35.5C 5.5,29.8333 5.5,24.1667 5.5,18.5 Z"/></g>
<g><path style="opacity:0.956" fill="#fefffe" d="M 24.5,18.5 C 30.1667,18.5 35.8333,18.5 41.5,18.5C 41.5,24.1667 41.5,29.8333 41.5,35.5C 35.8333,35.5 30.1667,35.5 24.5,35.5C 24.5,29.8333 24.5,24.1667 24.5,18.5 Z"/></g>
<g><path style="opacity:0.785" fill="#fefffe" d="M 158.5,23.5 C 161.244,24.0717 162.077,25.7383 161,28.5C 158.342,27.306 157.176,28.306 157.5,31.5C 159.167,31.5 160.833,31.5 162.5,31.5C 162.5,30.1667 162.5,28.8333 162.5,27.5C 163.833,27.5 165.167,27.5 166.5,27.5C 166.5,28.8333 166.5,30.1667 166.5,31.5C 167.833,31.5 169.167,31.5 170.5,31.5C 170.5,32.8333 170.5,34.1667 170.5,35.5C 169.167,35.5 167.833,35.5 166.5,35.5C 166.5,38.1667 166.5,40.8333 166.5,43.5C 167.833,43.5 169.167,43.5 170.5,43.5C 170.5,44.8333 170.5,46.1667 170.5,47.5C 167.635,47.9452 165.135,47.2785 163,45.5C 162.502,42.1832 162.335,38.8499 162.5,35.5C 160.833,35.5 159.167,35.5 157.5,35.5C 157.5,39.5 157.5,43.5 157.5,47.5C 156.167,47.5 154.833,47.5 153.5,47.5C 153.824,43.4454 153.491,39.4454 152.5,35.5C 152.216,45.9648 147.216,49.4648 137.5,46C 133,33.1667 137.167,29 150,33.5C 150.71,32.0267 151.876,31.3601 153.5,31.5C 152.803,27.2219 154.47,24.5553 158.5,23.5 Z M 142.5,34.5 C 146.254,35.8276 147.421,38.4942 146,42.5C 142.576,44.2671 140.41,43.2671 139.5,39.5C 139.757,37.3076 140.757,35.6409 142.5,34.5 Z"/></g>
<g><path style="opacity:0.809" fill="#fefffe" d="M 51.5,25.5 C 53.604,25.2011 55.604,25.5344 57.5,26.5C 59.3333,30.8333 61.1667,35.1667 63,39.5C 65.5198,35.1081 67.3531,30.4414 68.5,25.5C 70.5,25.5 72.5,25.5 74.5,25.5C 74.5,32.8333 74.5,40.1667 74.5,47.5C 73.1667,47.5 71.8333,47.5 70.5,47.5C 70.6658,42.8215 70.4992,38.1548 70,33.5C 68.3333,37.8333 66.6667,42.1667 65,46.5C 63.6667,47.8333 62.3333,47.8333 61,46.5C 59.3333,42.1667 57.6667,37.8333 56,33.5C 55.5008,38.1548 55.3342,42.8215 55.5,47.5C 54.1667,47.5 52.8333,47.5 51.5,47.5C 51.5,40.1667 51.5,32.8333 51.5,25.5 Z"/></g>
<g><path style="opacity:0.743" fill="#fefffe" d="M 77.5,25.5 C 79.6648,25.1159 81.3315,25.7826 82.5,27.5C 81.3315,29.2174 79.6648,29.8841 77.5,29.5C 77.5,28.1667 77.5,26.8333 77.5,25.5 Z"/></g>
<g><path style="opacity:0.82" fill="#fefffe" d="M 77.5,31.5 C 78.8333,31.5 80.1667,31.5 81.5,31.5C 81.5,36.8333 81.5,42.1667 81.5,47.5C 80.1667,47.5 78.8333,47.5 77.5,47.5C 77.5,42.1667 77.5,36.8333 77.5,31.5 Z"/></g>
<g><path style="opacity:0.769" fill="#fefffe" d="M 87.5,31.5 C 90.1667,31.5 92.8333,31.5 95.5,31.5C 95.5,32.8333 95.5,34.1667 95.5,35.5C 91.6549,34.088 88.9882,35.4213 87.5,39.5C 88.8185,43.3993 91.3185,44.3993 95,42.5C 95.4935,44.1341 95.6602,45.8008 95.5,47.5C 85.67,49.1708 81.8366,45.1708 84,35.5C 85.0319,33.9733 86.1986,32.64 87.5,31.5 Z"/></g>
<g><path style="opacity:0.747" fill="#fefffe" d="M 97.5,31.5 C 100.833,31.5 104.167,31.5 107.5,31.5C 107.443,35.1331 108.443,35.2998 110.5,32C 121.759,30.2691 125.259,34.7691 121,45.5C 117.284,47.934 113.451,48.1007 109.5,46C 106.571,43.0899 105.905,39.7566 107.5,36C 105.888,35.2797 104.388,35.4464 103,36.5C 102.667,39.8333 102.333,43.1667 102,46.5C 100.644,47.3802 99.1439,47.7135 97.5,47.5C 97.5,42.1667 97.5,36.8333 97.5,31.5 Z M 113.5,34.5 C 118.018,35.5365 119.352,38.2032 117.5,42.5C 113.876,44.3962 111.876,43.3962 111.5,39.5C 111.437,37.4861 112.103,35.8194 113.5,34.5 Z"/></g>
<g><path style="opacity:0.74" fill="#fefffe" d="M 125.5,31.5 C 128.167,31.5 130.833,31.5 133.5,31.5C 133.762,32.9778 133.429,34.3112 132.5,35.5C 131.109,34.3554 129.776,34.3554 128.5,35.5C 130.029,37.1881 131.863,38.5214 134,39.5C 134.867,46.5248 131.7,49.0248 124.5,47C 123.253,45.5064 123.253,44.0064 124.5,42.5C 126.432,43.5202 128.432,43.6869 130.5,43C 124.212,40.9422 122.546,37.1088 125.5,31.5 Z"/></g>
<g><path style="opacity:0.856" fill="#fefffe" d="M 6.5,36.5 C 12.1667,36.5 17.8333,36.5 23.5,36.5C 23.5,42.5 23.5,48.5 23.5,54.5C 17.5,54.5 11.5,54.5 5.5,54.5C 5.21139,48.4093 5.54472,42.4093 6.5,36.5 Z"/></g>
<g><path style="opacity:0.903" fill="#fefffe" d="M 24.5,36.5 C 30.1667,36.5 35.8333,36.5 41.5,36.5C 41.5,42.5 41.5,48.5 41.5,54.5C 35.8333,54.5 30.1667,54.5 24.5,54.5C 24.5,48.5 24.5,42.5 24.5,36.5 Z"/></g>
</svg>
