<?xml version="1.0" encoding="UTF-8"?>
<!DOCTYPE svg PUBLIC "-//W3C//DTD SVG 1.1//EN" "http://www.w3.org/Graphics/SVG/1.1/DTD/svg11.dtd">
<svg xmlns="http://www.w3.org/2000/svg" version="1.1" width="177px" height="74px" style="shape-rendering:geometricPrecision; text-rendering:geometricPrecision; image-rendering:optimizeQuality; fill-rule:evenodd; clip-rule:evenodd" xmlns:xlink="http://www.w3.org/1999/xlink">
<g><path style="opacity:0.596" fill="#fefffe" d="M 120.5,39.5 C 117.888,38.7225 116.055,37.0559 115,34.5C 113.522,37.9931 111.522,38.3264 109,35.5C 107.271,31.5623 107.104,27.5623 108.5,23.5C 106.993,18.7954 104.826,14.462 102,10.5C 101.066,5.91671 102.9,4.41671 107.5,6C 116.545,7.94666 123.711,12.78 129,20.5C 130.393,24.2857 132.059,27.9523 134,31.5C 138.312,33.0758 141.812,35.7425 144.5,39.5C 142.726,40.1867 141.059,41.0201 139.5,42C 142.885,43.6994 145.052,46.1994 146,49.5C 143.749,47.6227 141.249,46.1227 138.5,45C 134.204,41.4159 134.871,39.0825 140.5,38C 137.383,36.0267 134.216,34.1933 131,32.5C 127.015,18.1655 117.848,9.99879 103.5,8C 106.562,12.624 109.228,17.4574 111.5,22.5C 109.182,26.0912 109.015,29.7579 111,33.5C 111.687,31.4453 112.854,29.7786 114.5,28.5C 116.267,32.3719 118.267,36.0385 120.5,39.5 Z"/></g>
<g><path style="opacity:0.355" fill="#fefffe" d="M 110.5,12.5 C 113.275,12.8338 113.941,14.1671 112.5,16.5C 111.295,15.4231 110.628,14.0898 110.5,12.5 Z"/></g>
<g><path style="opacity:0.125" fill="#fefffe" d="M 120.5,39.5 C 121.833,40.1667 121.833,40.1667 120.5,39.5 Z"/></g>
<g><path style="opacity:0.788" fill="#fefffe" d="M 29.5,42.5 C 32.0444,42.1043 34.2111,42.771 36,44.5C 37.6228,48.7104 39.6228,52.7104 42,56.5C 43.7263,52.0469 45.7263,47.7136 48,43.5C 50.1317,42.2203 52.2984,42.2203 54.5,43.5C 55.4959,49.4632 55.8293,55.4632 55.5,61.5C 53.8333,61.5 52.1667,61.5 50.5,61.5C 50.6655,57.4862 50.4988,53.4862 50,49.5C 44.3333,65.5 38.6667,65.5 33,49.5C 32.5012,53.4862 32.3345,57.4862 32.5,61.5C 30.8333,61.5 29.1667,61.5 27.5,61.5C 27.3339,55.8236 27.5006,50.1569 28,44.5C 28.7172,43.9558 29.2172,43.2891 29.5,42.5 Z"/></g>
<g><path style="opacity:0.751" fill="#fefffe" d="M 83.5,42.5 C 88.1667,42.5 92.8333,42.5 97.5,42.5C 97.5,43.8333 97.5,45.1667 97.5,46.5C 93.1667,46.5 88.8333,46.5 84.5,46.5C 84.5,47.8333 84.5,49.1667 84.5,50.5C 88.6372,50.1463 92.6372,50.6463 96.5,52C 98.0363,55.24 97.703,58.24 95.5,61C 90.1771,61.4994 84.8437,61.666 79.5,61.5C 79.5,60.5 79.5,59.5 79.5,58.5C 83.5138,58.6655 87.5138,58.4988 91.5,58C 92.8333,56.6667 92.8333,55.3333 91.5,54C 87.4366,53.9616 83.6033,53.1283 80,51.5C 78.6649,47.3919 79.8316,44.3919 83.5,42.5 Z"/></g>
<g><path style="opacity:0.802" fill="#fefffe" d="M 104.5,42.5 C 119.144,40.491 123.811,46.491 118.5,60.5C 122.468,64.2876 121.468,65.4543 115.5,64C 114.833,63.3333 114.167,62.6667 113.5,62C 109.833,61.6667 106.167,61.3333 102.5,61C 101.584,60.6258 100.75,60.1258 100,59.5C 99.3333,54.8333 99.3333,50.1667 100,45.5C 101.409,44.2189 102.909,43.2189 104.5,42.5 Z M 104.5,46.5 C 114.864,43.8628 118.198,47.5295 114.5,57.5C 112.401,55.4798 110.067,55.1465 107.5,56.5C 107.709,57.086 108.043,57.586 108.5,58C 107.216,58.6838 106.049,58.5171 105,57.5C 104.501,53.8484 104.335,50.1817 104.5,46.5 Z"/></g>
<g><path style="opacity:0.862" fill="#fefffe" d="M 121.5,42.5 C 122.833,42.5 124.167,42.5 125.5,42.5C 125.219,47.5649 125.552,52.5649 126.5,57.5C 130.783,58.4922 135.116,58.8256 139.5,58.5C 139.5,59.5 139.5,60.5 139.5,61.5C 134.489,61.6659 129.489,61.4993 124.5,61C 123.584,60.6258 122.75,60.1258 122,59.5C 121.501,53.8431 121.334,48.1764 121.5,42.5 Z"/></g>
<g><path style="opacity:0.782" fill="#fefffe" d="M 58.5,48.5 C 59.8333,48.5 61.1667,48.5 62.5,48.5C 62.3354,51.5184 62.502,54.5184 63,57.5C 66.0567,58.4505 69.2234,58.7839 72.5,58.5C 72.5,55.1667 72.5,51.8333 72.5,48.5C 74.1667,48.5 75.8333,48.5 77.5,48.5C 77.666,53.8437 77.4994,59.1771 77,64.5C 75.8289,65.8932 74.3289,66.7265 72.5,67C 67.8452,67.4992 63.1785,67.6658 58.5,67.5C 58.5,66.1667 58.5,64.8333 58.5,63.5C 63.2137,63.8266 67.8804,63.4933 72.5,62.5C 68.0928,61.8754 63.7594,61.042 59.5,60C 58.5399,56.27 58.2065,52.4367 58.5,48.5 Z"/></g>
<g><path style="opacity:0.47" fill="#fefffe" d="M 141.5,55.5 C 145.908,55.062 147.575,57.062 146.5,61.5C 141.074,62.4161 139.407,60.4161 141.5,55.5 Z"/></g>
</svg>
