<?xml version="1.0" encoding="UTF-8"?>
<!DOCTYPE svg PUBLIC "-//W3C//DTD SVG 1.1//EN" "http://www.w3.org/Graphics/SVG/1.1/DTD/svg11.dtd">
<svg xmlns="http://www.w3.org/2000/svg" version="1.1" width="177px" height="74px" style="shape-rendering:geometricPrecision; text-rendering:geometricPrecision; image-rendering:optimizeQuality; fill-rule:evenodd; clip-rule:evenodd" xmlns:xlink="http://www.w3.org/1999/xlink">
<g><path style="opacity:0.753" fill="#fefffe" d="M 22.5,15.5 C 27.7325,17.2035 33.0658,18.7035 38.5,20C 41.3333,21.5 43.5,23.6667 45,26.5C 46.628,32.7456 47.2947,39.079 47,45.5C 42.5428,49.3247 38.3761,53.4914 34.5,58C 29.0867,60.459 24.2534,59.6256 20,55.5C 14.1836,56.5843 10.1836,54.251 8,48.5C 7.89853,45.3004 7.23186,42.3004 6,39.5C 3.52603,31.6204 6.02603,26.1204 13.5,23C 15.4974,19.1587 18.4974,16.6587 22.5,15.5 Z M 22.5,19.5 C 24.6547,19.372 26.6547,19.872 28.5,21C 20.5082,23.89 17.3416,29.7233 19,38.5C 18.3333,37.8333 17.6667,37.1667 17,36.5C 16.3333,32.8333 16.3333,29.1667 17,25.5C 18.0209,22.6499 19.8542,20.6499 22.5,19.5 Z M 33.5,22.5 C 38.9941,23.1566 41.8275,26.1566 42,31.5C 39.2615,29.2989 36.2615,27.6322 33,26.5C 29.571,27.8812 26.2377,29.5478 23,31.5C 22.3162,30.2161 22.4829,29.0495 23.5,28C 27.0879,26.3781 30.4212,24.5448 33.5,22.5 Z M 12.5,27.5 C 13.3227,30.977 13.8227,34.6437 14,38.5C 17.1667,40.3333 20.3333,42.1667 23.5,44C 22.5,44.5 21.5,45 20.5,45.5C 16.742,43.5388 13.242,41.2055 10,38.5C 7.82607,34.1927 8.6594,30.5261 12.5,27.5 Z M 31.5,29.5 C 35.4477,31.6078 39.281,33.9411 43,36.5C 45.1539,40.8669 44.3206,44.5336 40.5,47.5C 41.4623,39.3712 38.129,34.2045 30.5,32C 30.1667,31.6667 29.8333,31.3333 29.5,31C 30.4158,30.7216 31.0825,30.2216 31.5,29.5 Z M 24.5,33.5 C 29.7497,33.2357 31.4163,35.569 29.5,40.5C 25.946,43.0156 23.6126,42.0156 22.5,37.5C 22.8029,35.8857 23.4695,34.5523 24.5,33.5 Z M 33.5,37.5 C 34.4959,37.4142 35.3292,37.7476 36,38.5C 36.6667,42.5 36.6667,46.5 36,50.5C 33.73,55.0514 30.23,56.3847 25.5,54.5C 27.7049,52.4745 30.2049,50.8078 33,49.5C 33.4988,45.5138 33.6655,41.5138 33.5,37.5 Z M 29.5,43.5 C 30.7911,44.5417 30.7911,45.7083 29.5,47C 26.107,49.3631 22.4404,51.1965 18.5,52.5C 14.3748,51.5411 11.7081,49.0411 10.5,45C 13.8088,46.1466 17.1422,47.6466 20.5,49.5C 23.7376,47.7247 26.7376,45.7247 29.5,43.5 Z"/></g>
<g><path style="opacity:0.802" fill="#fefffe" d="M 65.5,23.5 C 76.0532,24.9012 79.8866,30.9012 77,41.5C 74.6113,47.7767 70.1113,49.9433 63.5,48C 61.3762,46.8783 59.5429,45.3783 58,43.5C 57.3333,38.8333 57.3333,34.1667 58,29.5C 59.7074,26.4096 62.2074,24.4096 65.5,23.5 Z M 64.5,28.5 C 66.5273,28.3379 68.5273,28.5045 70.5,29C 72.4777,32.9331 72.9777,37.0998 72,41.5C 69.2709,44.8639 66.2709,45.1972 63,42.5C 60.7111,37.4692 61.2111,32.8026 64.5,28.5 Z"/></g>
<g><path style="opacity:0.769" fill="#fefffe" d="M 141.5,24.5 C 143.766,24.1412 145.599,24.8078 147,26.5C 149.111,33.5035 151.611,40.3368 154.5,47C 150.322,49.6195 148.322,48.4528 148.5,43.5C 145.482,43.3354 142.482,43.502 139.5,44C 139.074,47.5921 137.074,49.0921 133.5,48.5C 135.572,40.2855 138.238,32.2855 141.5,24.5 Z M 143.5,30.5 C 144.484,33.0513 145.484,35.7179 146.5,38.5C 144.579,39.641 142.579,39.8077 140.5,39C 141.732,36.2344 142.732,33.401 143.5,30.5 Z"/></g>
<g><path style="opacity:0.754" fill="#fefffe" d="M 155.5,24.5 C 160.167,24.5 164.833,24.5 169.5,24.5C 169.5,25.8333 169.5,27.1667 169.5,28.5C 168.167,28.5 166.833,28.5 165.5,28.5C 165.5,33.5 165.5,38.5 165.5,43.5C 166.833,43.5 168.167,43.5 169.5,43.5C 169.5,45.1667 169.5,46.8333 169.5,48.5C 164.833,48.5 160.167,48.5 155.5,48.5C 155.5,46.8333 155.5,45.1667 155.5,43.5C 157.167,43.5 158.833,43.5 160.5,43.5C 160.5,38.5 160.5,33.5 160.5,28.5C 158.833,28.5 157.167,28.5 155.5,28.5C 155.5,27.1667 155.5,25.8333 155.5,24.5 Z"/></g>
<g><path style="opacity:0.768" fill="#fefffe" d="M 88.5,29.5 C 95.8966,31.2815 98.3966,35.9481 96,43.5C 93.4341,48.7575 89.7674,49.7575 85,46.5C 84.5034,48.8098 84.3367,51.1432 84.5,53.5C 82.8333,53.5 81.1667,53.5 79.5,53.5C 79.5,45.8333 79.5,38.1667 79.5,30.5C 81.4672,30.2606 83.3005,30.5939 85,31.5C 86.3024,30.9152 87.469,30.2485 88.5,29.5 Z M 85.5,34.5 C 91.2038,34.1464 93.0371,36.813 91,42.5C 88.4781,45.3264 86.4781,44.9931 85,41.5C 84.4436,39.1152 84.6103,36.7819 85.5,34.5 Z"/></g>
<g><path style="opacity:0.79" fill="#fefffe" d="M 105.5,29.5 C 112.004,30.3417 114.671,34.0083 113.5,40.5C 109.818,40.3347 106.152,40.5014 102.5,41C 104.467,44.9904 107.134,45.4904 110.5,42.5C 114.269,44.567 113.936,46.4004 109.5,48C 99.7852,48.6009 96.2852,44.1009 99,34.5C 100.272,31.5081 102.438,29.8414 105.5,29.5 Z M 104.5,33.5 C 106.912,33.244 108.579,34.244 109.5,36.5C 107.235,37.6474 104.902,37.8141 102.5,37C 103.305,35.8873 103.972,34.7206 104.5,33.5 Z"/></g>
<g><path style="opacity:0.752" fill="#fefffe" d="M 124.5,29.5 C 127.675,29.8399 129.841,31.5066 131,34.5C 131.499,39.1548 131.666,43.8215 131.5,48.5C 129.833,48.5 128.167,48.5 126.5,48.5C 126.666,44.1539 126.499,39.8206 126,35.5C 124.333,34.1667 122.667,34.1667 121,35.5C 120.501,39.8206 120.334,44.1539 120.5,48.5C 118.856,48.7135 117.356,48.3802 116,47.5C 115.501,41.8431 115.334,36.1764 115.5,30.5C 117.467,30.2606 119.301,30.5939 121,31.5C 122.302,30.9152 123.469,30.2485 124.5,29.5 Z"/></g>
</svg>
