<?xml version="1.0" encoding="UTF-8"?>
<!DOCTYPE svg PUBLIC "-//W3C//DTD SVG 1.1//EN" "http://www.w3.org/Graphics/SVG/1.1/DTD/svg11.dtd">
<svg xmlns="http://www.w3.org/2000/svg" version="1.1" width="177px" height="75px" style="shape-rendering:geometricPrecision; text-rendering:geometricPrecision; image-rendering:optimizeQuality; fill-rule:evenodd; clip-rule:evenodd" xmlns:xlink="http://www.w3.org/1999/xlink">
<g><path style="opacity:0.878" fill="#fefffe" d="M 39.5,20.5 C 42.2605,19.9147 43.9272,20.9147 44.5,23.5C 42.9538,32.4897 41.4538,41.4897 40,50.5C 37.2098,52.8311 34.3765,52.6645 31.5,50C 27.835,48.0136 24.835,45.3469 22.5,42C 25.4511,38.0459 28.7844,34.3793 32.5,31C 32.1667,30.8333 31.8333,30.6667 31.5,30.5C 26.4087,34.2655 21.0754,37.5989 15.5,40.5C 11.8992,39.7462 8.56588,38.4129 5.5,36.5C 5.97665,35.5224 6.64332,34.6891 7.5,34C 18.3713,29.7237 29.0379,25.2237 39.5,20.5 Z"/></g>
<g><path style="opacity:0.722" fill="#fefffe" d="M 57.5,25.5 C 63.1667,25.5 68.8333,25.5 74.5,25.5C 74.5,26.5 74.5,27.5 74.5,28.5C 72.5,28.5 70.5,28.5 68.5,28.5C 68.5,34.1667 68.5,39.8333 68.5,45.5C 67.1667,45.5 65.8333,45.5 64.5,45.5C 64.5,39.8333 64.5,34.1667 64.5,28.5C 62.1667,28.5 59.8333,28.5 57.5,28.5C 57.5,27.5 57.5,26.5 57.5,25.5 Z"/></g>
<g><path style="opacity:0.783" fill="#fefffe" d="M 88.5,25.5 C 89.5,25.5 90.5,25.5 91.5,25.5C 91.5,32.1667 91.5,38.8333 91.5,45.5C 90.5,45.5 89.5,45.5 88.5,45.5C 88.5,38.8333 88.5,32.1667 88.5,25.5 Z"/></g>
<g><path style="opacity:0.7" fill="#fefffe" d="M 75.5,30.5 C 82.9762,29.0526 86.6428,32.0526 86.5,39.5C 82.8183,39.3347 79.1516,39.5014 75.5,40C 76.1189,41.7571 77.2856,42.9238 79,43.5C 81.084,42.2311 83.2506,41.2311 85.5,40.5C 83.8005,46.342 80.1338,47.842 74.5,45C 71.6568,39.9216 71.9901,35.0883 75.5,30.5 Z M 77.5,33.5 C 79.6648,33.1159 81.3315,33.7826 82.5,35.5C 80.2351,36.6474 77.9018,36.8141 75.5,36C 76.3805,35.2917 77.0472,34.4584 77.5,33.5 Z"/></g>
<g><path style="opacity:0.69" fill="#fefffe" d="M 97.5,30.5 C 104.67,29.3392 108.003,32.3392 107.5,39.5C 104.102,39.1796 100.768,39.513 97.5,40.5C 98.2116,42.0459 99.3783,43.0459 101,43.5C 102.667,42.5 104.333,41.5 106,40.5C 107.479,41.8731 107.312,43.3731 105.5,45C 98.7972,47.8153 94.7972,45.6487 93.5,38.5C 93.7821,35.2691 95.1154,32.6024 97.5,30.5 Z M 98.5,33.5 C 101.022,33.1281 103.022,33.9614 104.5,36C 102.098,36.8141 99.7649,36.6474 97.5,35.5C 97.8627,34.8165 98.1961,34.1499 98.5,33.5 Z"/></g>
<g><path style="opacity:0.704" fill="#fefffe" d="M 112.5,30.5 C 115.993,30.9975 119.326,30.9975 122.5,30.5C 122.916,36.9522 122.416,43.2855 121,49.5C 118.159,51.5037 114.993,52.0037 111.5,51C 109.963,49.8904 109.297,48.3904 109.5,46.5C 111.903,46.393 113.736,47.393 115,49.5C 117.13,48.8592 118.63,47.5259 119.5,45.5C 117.098,45.4779 114.432,45.3112 111.5,45C 107.478,39.9028 107.811,35.0695 112.5,30.5 Z M 113.5,33.5 C 117.06,32.8914 119.06,34.3914 119.5,38C 119.016,40.4747 117.683,42.3081 115.5,43.5C 112.343,40.7657 111.676,37.4324 113.5,33.5 Z"/></g>
<g><path style="opacity:0.761" fill="#fefffe" d="M 125.5,30.5 C 128.062,31.3715 130.728,31.3715 133.5,30.5C 133.5,31.5 133.5,32.5 133.5,33.5C 131.61,33.2965 130.11,33.9632 129,35.5C 128.502,38.8168 128.335,42.1501 128.5,45.5C 127.5,45.5 126.5,45.5 125.5,45.5C 125.5,40.5 125.5,35.5 125.5,30.5 Z"/></g>
<g><path style="opacity:0.685" fill="#fefffe" d="M 136.5,30.5 C 140.007,29.9935 143.174,30.6602 146,32.5C 145.997,36.7419 146.83,40.7419 148.5,44.5C 148.167,45.5 147.5,46.1667 146.5,46.5C 142.842,46.2924 139.175,45.9591 135.5,45.5C 132.665,42.3295 132.998,39.4962 136.5,37C 139.043,36.8603 141.377,36.1937 143.5,35C 142.737,34.0565 141.737,33.5565 140.5,33.5C 138.675,34.6511 136.675,35.3178 134.5,35.5C 134.392,33.4862 135.058,31.8195 136.5,30.5 Z M 142.5,38.5 C 143.573,39.2506 143.74,40.2506 143,41.5C 141.416,42.8613 139.582,43.528 137.5,43.5C 137.351,42.448 137.517,41.448 138,40.5C 139.622,39.9011 141.122,39.2344 142.5,38.5 Z"/></g>
<g><path style="opacity:0.761" fill="#fefffe" d="M 149.5,30.5 C 155.746,30.8629 162.079,31.0295 168.5,31C 169.469,35.7367 169.803,40.57 169.5,45.5C 168.5,45.5 167.5,45.5 166.5,45.5C 166.5,41.5 166.5,37.5 166.5,33.5C 164.856,33.2865 163.356,33.6198 162,34.5C 161.501,38.1516 161.335,41.8183 161.5,45.5C 160.5,45.5 159.5,45.5 158.5,45.5C 158.665,41.8183 158.499,38.1516 158,34.5C 154.938,32.8695 153.271,33.8695 153,37.5C 152.503,40.146 152.336,42.8127 152.5,45.5C 151.5,45.5 150.5,45.5 149.5,45.5C 149.5,40.5 149.5,35.5 149.5,30.5 Z"/></g>
</svg>
