<?xml version="1.0" encoding="UTF-8"?>
<!DOCTYPE svg PUBLIC "-//W3C//DTD SVG 1.1//EN" "http://www.w3.org/Graphics/SVG/1.1/DTD/svg11.dtd">
<svg xmlns="http://www.w3.org/2000/svg" version="1.1" width="177px" height="74px" style="shape-rendering:geometricPrecision; text-rendering:geometricPrecision; image-rendering:optimizeQuality; fill-rule:evenodd; clip-rule:evenodd" xmlns:xlink="http://www.w3.org/1999/xlink">
<g><path style="opacity:0.897" fill="#fefffe" d="M 23.5,13.5 C 42.1483,12.9823 51.3149,21.9823 51,40.5C 45.0927,56.8688 33.926,62.0355 17.5,56C 6.17771,47.9315 3.34437,37.4315 9,24.5C 12.5503,18.9922 17.3836,15.3255 23.5,13.5 Z M 18.5,25.5 C 25.1667,25.5 31.8333,25.5 38.5,25.5C 38.5,26.8333 38.5,28.1667 38.5,29.5C 35.8333,29.5 33.1667,29.5 30.5,29.5C 30.5,31.8333 30.5,34.1667 30.5,36.5C 29.1667,36.5 27.8333,36.5 26.5,36.5C 26.5,34.1667 26.5,31.8333 26.5,29.5C 23.8333,29.5 21.1667,29.5 18.5,29.5C 18.5,28.1667 18.5,26.8333 18.5,25.5 Z M 26.5,38.5 C 27.8333,38.5 29.1667,38.5 30.5,38.5C 30.5,42.1667 30.5,45.8333 30.5,49.5C 29.1667,49.5 27.8333,49.5 26.5,49.5C 26.5,45.8333 26.5,42.1667 26.5,38.5 Z"/></g>
<g><path style="opacity:0.775" fill="#fefffe" d="M 96.5,35.5 C 96.5,33.8333 96.5,32.1667 96.5,30.5C 97.5,30.5 98.5,30.5 99.5,30.5C 99.5,28.8333 99.5,27.1667 99.5,25.5C 101.5,25.5 103.5,25.5 105.5,25.5C 105.5,27.1667 105.5,28.8333 105.5,30.5C 107.167,30.5 108.833,30.5 110.5,30.5C 110.5,32.1667 110.5,33.8333 110.5,35.5C 108.833,35.5 107.167,35.5 105.5,35.5C 105.5,38.8333 105.5,42.1667 105.5,45.5C 107.167,45.5 108.833,45.5 110.5,45.5C 111.398,40.2144 111.898,32.8811 112,23.5C 113.699,22.5939 115.533,22.2606 117.5,22.5C 117.335,25.8499 117.502,29.1832 118,32.5C 125.072,28.5356 129.405,30.5356 131,38.5C 131.499,42.4862 131.666,46.4862 131.5,50.5C 129.5,50.5 127.5,50.5 125.5,50.5C 125.666,46.1539 125.499,41.8206 125,37.5C 122.321,34.8285 119.988,35.1618 118,38.5C 117.501,42.4862 117.334,46.4862 117.5,50.5C 112.638,50.0459 107.638,49.8792 102.5,50C 101.299,49.0975 100.465,47.9308 100,46.5C 99.5014,42.8484 99.3347,39.1817 99.5,35.5C 98.5,35.5 97.5,35.5 96.5,35.5 Z"/></g>
<g><path style="opacity:0.82" fill="#fefffe" d="M 67.5,25.5 C 68.5,25.5 69.5,25.5 70.5,25.5C 70.5,27.5 70.5,29.5 70.5,31.5C 72.1667,31.5 73.8333,31.5 75.5,31.5C 75.5,32.8333 75.5,34.1667 75.5,35.5C 73.8333,35.5 72.1667,35.5 70.5,35.5C 70.5,38.8333 70.5,42.1667 70.5,45.5C 72.1667,45.5 73.8333,45.5 75.5,45.5C 75.9662,47.2012 75.9662,48.7012 75.5,50C 72.8333,50.6667 70.1667,50.6667 67.5,50C 66.2986,49.0975 65.4652,47.9308 65,46.5C 64.5014,42.8484 64.3347,39.1817 64.5,35.5C 63.5,35.5 62.5,35.5 61.5,35.5C 61.5,34.1667 61.5,32.8333 61.5,31.5C 62.5,31.5 63.5,31.5 64.5,31.5C 64.5,29.8333 64.5,28.1667 64.5,26.5C 65.791,26.7373 66.791,26.404 67.5,25.5 Z"/></g>
<g><path style="opacity:0.84" fill="#fefffe" d="M 96.5,35.5 C 96.5,37.8333 96.5,40.1667 96.5,42.5C 91.7863,42.1734 87.1196,42.5067 82.5,43.5C 83.5271,45.024 85.0271,45.6906 87,45.5C 90.0049,44.1183 92.6716,44.4516 95,46.5C 95.6172,47.4491 95.4506,48.2825 94.5,49C 88.4348,52.3227 82.9348,51.4894 78,46.5C 74.6043,34.5588 79.1043,29.3922 91.5,31C 93.687,32.025 95.3536,33.525 96.5,35.5 Z M 84.5,35.5 C 87.3456,35.0301 89.6789,35.8634 91.5,38C 88.5,38.6667 85.5,38.6667 82.5,38C 83.3805,37.2917 84.0472,36.4584 84.5,35.5 Z"/></g>
<g><path style="opacity:0.842" fill="#fefffe" d="M 138.5,30.5 C 148.5,28.508 153.166,32.508 152.5,42.5C 147.786,42.1734 143.12,42.5067 138.5,43.5C 139.527,45.024 141.027,45.6906 143,45.5C 146.568,43.5437 149.402,44.2103 151.5,47.5C 146.318,51.8138 140.984,52.1471 135.5,48.5C 130.796,41.4357 131.796,35.4357 138.5,30.5 Z M 140.5,35.5 C 143.346,35.0301 145.679,35.8634 147.5,38C 144.446,38.8214 141.446,38.6548 138.5,37.5C 139.243,36.8182 139.909,36.1515 140.5,35.5 Z"/></g>
<g><path style="opacity:0.826" fill="#fefffe" d="M 154.5,30.5 C 159.095,31.066 163.762,31.2327 168.5,31C 170.573,33.0932 170.073,34.9265 167,36.5C 164.804,35.2476 162.804,35.5809 161,37.5C 159.633,41.6996 159.133,46.0329 159.5,50.5C 157.833,50.5 156.167,50.5 154.5,50.5C 154.5,43.8333 154.5,37.1667 154.5,30.5 Z"/></g>
</svg>
