<?xml version="1.0" encoding="UTF-8"?>
<!DOCTYPE svg PUBLIC "-//W3C//DTD SVG 1.1//EN" "http://www.w3.org/Graphics/SVG/1.1/DTD/svg11.dtd">
<svg xmlns="http://www.w3.org/2000/svg" version="1.1" width="177px" height="74px" style="shape-rendering:geometricPrecision; text-rendering:geometricPrecision; image-rendering:optimizeQuality; fill-rule:evenodd; clip-rule:evenodd" xmlns:xlink="http://www.w3.org/1999/xlink">
<g><path style="opacity:0.944" fill="#fefefe" d="M 25.5,14.5 C 25.5,17.5 25.5,20.5 25.5,23.5C 25.5,26.5 25.5,29.5 25.5,32.5C 25.5,36.5 25.5,40.5 25.5,44.5C 25.3354,47.5184 25.502,50.5184 26,53.5C 28.6073,54.1233 31.1073,54.79 33.5,55.5C 31.2495,57.2099 28.7495,58.5432 26,59.5C 8.69602,52.233 1.86269,39.233 5.5,20.5C 12.2258,18.7026 18.8924,16.7026 25.5,14.5 Z"/></g>
<g><path style="opacity:0.972" fill="#6d6d6d" d="M 26.5,14.5 C 32.0402,16.6242 37.7068,18.4576 43.5,20C 44.756,20.4169 45.4226,21.2502 45.5,22.5C 39.1667,22.5 32.8333,22.5 26.5,22.5C 26.5,19.8333 26.5,17.1667 26.5,14.5 Z"/></g>
<g><path style="opacity:0.997" fill="#808080" d="M 25.5,14.5 C 25.8333,14.5 26.1667,14.5 26.5,14.5C 26.5,17.1667 26.5,19.8333 26.5,22.5C 32.8333,22.5 39.1667,22.5 45.5,22.5C 45.5,24.1667 45.5,25.8333 45.5,27.5C 39.1667,27.5 32.8333,27.5 26.5,27.5C 26.7678,25.901 26.4345,24.5676 25.5,23.5C 25.5,20.5 25.5,17.5 25.5,14.5 Z"/></g>
<g><path style="opacity:0.817" fill="#fefffe" d="M 57.5,24.5 C 64.175,24.3337 70.8417,24.5004 77.5,25C 78.4438,27.7191 78.7771,30.5525 78.5,33.5C 76.5,33.5 74.5,33.5 72.5,33.5C 72.5,38.8333 72.5,44.1667 72.5,49.5C 69.5,49.5 66.5,49.5 63.5,49.5C 63.5,44.1667 63.5,38.8333 63.5,33.5C 61.5,33.5 59.5,33.5 57.5,33.5C 57.5,30.5 57.5,27.5 57.5,24.5 Z"/></g>
<g><path style="opacity:0.832" fill="#fefffe" d="M 79.5,24.5 C 82.5,24.5 85.5,24.5 88.5,24.5C 88.2022,27.3356 88.8689,27.8356 90.5,26C 97.9199,22.9347 100.587,25.4347 98.5,33.5C 95.3979,33.154 92.5645,33.8207 90,35.5C 88.6211,40.036 88.1211,44.7027 88.5,49.5C 85.5,49.5 82.5,49.5 79.5,49.5C 79.5,41.1667 79.5,32.8333 79.5,24.5 Z"/></g>
<g><path style="opacity:0.849" fill="#fefffe" d="M 99.5,24.5 C 102.5,24.5 105.5,24.5 108.5,24.5C 108.334,29.8437 108.501,35.1771 109,40.5C 111.321,43.0325 113.321,42.6992 115,39.5C 115.499,34.5111 115.666,29.5111 115.5,24.5C 118.448,24.2229 121.281,24.5562 124,25.5C 124.5,33.4931 124.666,41.4931 124.5,49.5C 120.97,50.0111 117.804,49.3444 115,47.5C 110.948,49.9423 106.781,50.109 102.5,48C 101.299,47.0975 100.465,45.9308 100,44.5C 99.5004,37.8417 99.3337,31.175 99.5,24.5 Z"/></g>
<g><path style="opacity:0.85" fill="#fefffe" d="M 133.5,40.5 C 126.488,38.4604 124.488,34.1271 127.5,27.5C 133.967,23.5248 140.467,23.5248 147,27.5C 148.128,29.3453 148.628,31.3453 148.5,33.5C 144.142,34.1538 140.309,33.1538 137,30.5C 135.941,30.6301 135.108,31.1301 134.5,32C 139.126,33.4522 143.626,35.2855 148,37.5C 150.065,42.6296 148.565,46.4629 143.5,49C 137.621,50.2227 132.121,49.3893 127,46.5C 125.872,44.6547 125.372,42.6547 125.5,40.5C 128.167,40.5 130.833,40.5 133.5,40.5 Z M 133.5,40.5 C 135.927,40.523 138.26,41.023 140.5,42C 137.511,44.1681 135.178,43.6681 133.5,40.5 Z"/></g>
<g><path style="opacity:0.817" fill="#fefffe" d="M 149.5,24.5 C 156.5,24.5 163.5,24.5 170.5,24.5C 170.5,27.5 170.5,30.5 170.5,33.5C 168.5,33.5 166.5,33.5 164.5,33.5C 164.5,38.8333 164.5,44.1667 164.5,49.5C 161.5,49.5 158.5,49.5 155.5,49.5C 155.5,44.1667 155.5,38.8333 155.5,33.5C 153.5,33.5 151.5,33.5 149.5,33.5C 149.5,30.5 149.5,27.5 149.5,24.5 Z"/></g>
<g><path style="opacity:0.993" fill="#9b9b9b" d="M 25.5,23.5 C 26.4345,24.5676 26.7678,25.901 26.5,27.5C 32.8333,27.5 39.1667,27.5 45.5,27.5C 45.5,30.1667 45.5,32.8333 45.5,35.5C 39.1667,35.5 32.8333,35.5 26.5,35.5C 26.7373,34.209 26.404,33.209 25.5,32.5C 25.5,29.5 25.5,26.5 25.5,23.5 Z"/></g>
<g><path style="opacity:0.964" fill="#b6b6b6" d="M 26.5,35.5 C 32.8333,35.5 39.1667,35.5 45.5,35.5C 45.6747,37.6208 45.3414,39.6208 44.5,41.5C 38.5,41.5 32.5,41.5 26.5,41.5C 26.5,39.5 26.5,37.5 26.5,35.5 Z"/></g>
<g><path style="opacity:0.924" fill="#d1d1d1" d="M 25.5,32.5 C 26.404,33.209 26.7373,34.209 26.5,35.5C 26.5,37.5 26.5,39.5 26.5,41.5C 32.5,41.5 38.5,41.5 44.5,41.5C 43.6167,44.7043 41.9501,47.3709 39.5,49.5C 39.38,48.4138 38.7133,47.7472 37.5,47.5C 33.8822,48.3464 30.2155,48.6797 26.5,48.5C 26.7678,46.901 26.4345,45.5676 25.5,44.5C 25.5,40.5 25.5,36.5 25.5,32.5 Z"/></g>
<g><path style="opacity:0.911" fill="#e9e9e9" d="M 25.5,44.5 C 26.4345,45.5676 26.7678,46.901 26.5,48.5C 30.2155,48.6797 33.8822,48.3464 37.5,47.5C 38.7133,47.7472 39.38,48.4138 39.5,49.5C 37.8333,51.8333 35.8333,53.8333 33.5,55.5C 31.1073,54.79 28.6073,54.1233 26,53.5C 25.502,50.5184 25.3354,47.5184 25.5,44.5 Z"/></g>
</svg>
