<?xml version="1.0" encoding="UTF-8"?>
<!DOCTYPE svg PUBLIC "-//W3C//DTD SVG 1.1//EN" "http://www.w3.org/Graphics/SVG/1.1/DTD/svg11.dtd">
<svg xmlns="http://www.w3.org/2000/svg" version="1.1" width="177px" height="74px" style="shape-rendering:geometricPrecision; text-rendering:geometricPrecision; image-rendering:optimizeQuality; fill-rule:evenodd; clip-rule:evenodd" xmlns:xlink="http://www.w3.org/1999/xlink">
<g><path style="opacity:0.835" fill="#fefffe" d="M 46.5,23.5 C 50.8461,23.3343 55.1794,23.501 59.5,24C 60,24.5 60.5,25 61,25.5C 62.1277,30.1386 63.1277,34.8053 64,39.5C 66.1667,34.5 68.3333,29.5 70.5,24.5C 73.1667,23.1667 75.8333,23.1667 78.5,24.5C 75,32.8333 71.5,41.1667 68,49.5C 65.2809,50.4438 62.4475,50.7771 59.5,50.5C 57.6714,43.1857 55.8381,35.8523 54,28.5C 51.9777,27.2135 49.8111,26.2135 47.5,25.5C 46.7025,25.0431 46.3691,24.3764 46.5,23.5 Z"/></g>
<g><path style="opacity:0.832" fill="#fefffe" d="M 80.5,23.5 C 83.1873,23.3359 85.854,23.5026 88.5,24C 86.1848,32.7397 84.1848,41.5731 82.5,50.5C 79.7531,50.8134 77.0865,50.48 74.5,49.5C 76.6289,40.8545 78.6289,32.1878 80.5,23.5 Z"/></g>
<g><path style="opacity:0.852" fill="#fefffe" d="M 95.5,23.5 C 99.1817,23.3347 102.848,23.5014 106.5,24C 106.986,26.0266 106.986,28.1933 106.5,30.5C 104.512,30.1729 102.512,29.8396 100.5,29.5C 98.9334,29.477 97.6001,29.977 96.5,31C 98.1558,32.8294 100.156,34.1628 102.5,35C 107.405,38.9625 107.739,43.2958 103.5,48C 97.6748,50.9225 91.6748,51.2559 85.5,49C 86.0864,46.7202 86.9197,44.5535 88,42.5C 91.7413,45.2013 95.2413,45.0346 98.5,42C 96.8442,40.1706 94.8442,38.8372 92.5,38C 87.7777,34.7206 87.2777,30.8873 91,26.5C 92.6516,25.6006 94.1516,24.6006 95.5,23.5 Z"/></g>
<g><path style="opacity:0.854" fill="#fefffe" d="M 116.5,23.5 C 119.167,23.5 121.833,23.5 124.5,23.5C 126.552,32.4267 128.219,41.4267 129.5,50.5C 127.167,50.5 124.833,50.5 122.5,50.5C 122.5,49.1667 122.5,47.8333 122.5,46.5C 119.813,46.3359 117.146,46.5026 114.5,47C 113.663,48.0113 113.33,49.1779 113.5,50.5C 110.833,50.5 108.167,50.5 105.5,50.5C 108.578,41.2661 112.245,32.2661 116.5,23.5 Z M 118.5,33.5 C 119.924,35.5145 120.59,37.8478 120.5,40.5C 119.022,40.762 117.689,40.4287 116.5,39.5C 117.747,37.677 118.414,35.677 118.5,33.5 Z"/></g>
</svg>
